<svg id="Grupo_244" data-name="Grupo 244" xmlns="http://www.w3.org/2000/svg" width="38.994" height="38.995" viewBox="0 0 38.994 38.995">
  <rect id="Rectángulo_117" data-name="Rectángulo 117" width="38.994" height="38.994" rx="8" fill="#7bc5f8"/>
  <g id="Grupo_243" data-name="Grupo 243" transform="translate(5.653 8.48)">
    <path id="Trazado_6590" data-name="Trazado 6590" d="M670.3-187.138Z" transform="translate(-644.271 187.487)" fill="#fff"/>
    <path id="Trazado_6591" data-name="Trazado 6591" d="M602.99-185.28a3.592,3.592,0,0,1-1.045.137l.019-.111a8.577,8.577,0,0,0,2.1-2.4c.079-.27-.014-.364-.015-.372l-1.754.745-1.467.662h0a5.851,5.851,0,0,0-4.26-1.755c-3.051,0-5.524,2.161-5.524,4.828a7.164,7.164,0,0,0,.226,1.821c0,.14.005-.14,0,0a17.235,17.235,0,0,1-6.724-2c-4.423-2.241-4.7-3.792-4.7-3.792-.695.738-1.053,3.18-.349,5.1a6.35,6.35,0,0,0,2,2.326h0a4.691,4.691,0,0,1-1.419-.232,3.131,3.131,0,0,1-1-.489c-.432,1.053.434,2.933,1.931,4.281a7.927,7.927,0,0,0,2.465,1.28l-2.489.07c-.14,2.42,5.074,3.857,5.074,3.857h0a8.523,8.523,0,0,1-5.2,1.891,9.91,9.91,0,0,1-2.84-.417,13.545,13.545,0,0,0,9.247,3.312c9.309-.489,14.564-8.491,14.815-16.35l.012.016a6.544,6.544,0,0,0,1.369-1.151,9.636,9.636,0,0,0,1.513-2.024S603.575-185.442,602.99-185.28Z" transform="translate(-578.015 188.374)" fill="#fff"/>
    <path id="Trazado_6592" data-name="Trazado 6592" d="M670.3-187.137c.007.149,0,.015,0,0Z" transform="translate(-644.271 187.486)" fill="#fff"/>
  </g>
</svg>
