<svg xmlns="http://www.w3.org/2000/svg" width="68.681" height="41.209" viewBox="0 0 68.681 41.209">
  <g id="Grupo_20626" data-name="Grupo 20626" transform="translate(-703 -1777)">
    <rect id="Rectángulo_18557" data-name="Rectángulo 18557" width="68.681" height="41.209" rx="3" transform="translate(703 1777)"/>
    <g id="Grupo_20625" data-name="Grupo 20625" transform="translate(719 1787)">
      <g id="Grupo_20597" data-name="Grupo 20597" transform="translate(0.97 0)">
        <path id="Trazado_43304" data-name="Trazado 43304" d="M4.642,18.186H7.01v6.392H4.642v-.573a2.08,2.08,0,0,1-1.713.754A2.643,2.643,0,0,1,.819,23.8,3.6,3.6,0,0,1,0,21.383a3.591,3.591,0,0,1,.819-2.417A2.643,2.643,0,0,1,2.929,18a2.085,2.085,0,0,1,1.713.754ZM2.679,22.241a1.064,1.064,0,0,0,.825.346,1.064,1.064,0,0,0,.825-.346,1.33,1.33,0,0,0,0-1.714,1.064,1.064,0,0,0-.825-.346,1.064,1.064,0,0,0-.825.346,1.33,1.33,0,0,0,0,1.714" transform="translate(0 -15.091)" fill="#fff"/>
        <path id="Trazado_43305" data-name="Trazado 43305" d="M53.758,18.007a2.134,2.134,0,0,1,1.682.717,3.169,3.169,0,0,1,.634,2.152v3.706H53.707V21.145q0-.857-.793-.857a.793.793,0,0,0-.646.269,1.123,1.123,0,0,0-.221.741v3.284h-2.37V18.191h2.37v.627a1.978,1.978,0,0,1,1.711-.811" transform="translate(-41.646 -15.096)" fill="#fff"/>
        <path id="Trazado_43306" data-name="Trazado 43306" d="M95.7,2.609a1.27,1.27,0,0,1-.928-.39A1.268,1.268,0,0,1,94.735.426L94.77.39A1.265,1.265,0,0,1,95.7,0a1.252,1.252,0,0,1,.915.39,1.269,1.269,0,0,1,.036,1.794l-.036.036a1.257,1.257,0,0,1-.915.39m-1.19.487h2.366V9.487H94.509Z" transform="translate(-79.121 0)" fill="#fff"/>
        <path id="Trazado_43307" data-name="Trazado 43307" d="M123.682,18.007a2.217,2.217,0,0,1,1.74.7,2.907,2.907,0,0,1,.631,1.993v3.886h-2.371V21.017q0-.729-.653-.729-.753,0-.754.947v3.348h-2.366V21.017q0-.729-.653-.729-.756,0-.755.947v3.348h-2.366V18.191H118.5v.6a2.107,2.107,0,0,1,1.74-.782,1.733,1.733,0,0,1,1.6.793,2.321,2.321,0,0,1,1.841-.793" transform="translate(-97.358 -15.096)" fill="#fff"/>
        <path id="Trazado_43308" data-name="Trazado 43308" d="M184.017,22.192a1.3,1.3,0,0,0,1.3.64,1.674,1.674,0,0,0,1.087-.4l1.548,1.3a3.5,3.5,0,0,1-2.712,1.035,3.63,3.63,0,0,1-2.63-.957,3.183,3.183,0,0,1-.991-2.4,3.324,3.324,0,0,1,3.4-3.409,3.218,3.218,0,0,1,2.4.957,3.281,3.281,0,0,1,.939,2.4,3.412,3.412,0,0,1-.1.837Zm-.038-1.522h2.152a.975.975,0,0,0-1.037-.767,1.1,1.1,0,0,0-1.115.77Z" transform="translate(-152.258 -15.096)" fill="#fff"/>
      </g>
      <g id="Grupo_20598" data-name="Grupo 20598" transform="translate(0 11.102)">
        <g id="Polígono_5" data-name="Polígono 5" transform="matrix(0.719, -0.695, 0.695, 0.719, 0, 3.8)" fill="none">
          <path d="M1.037,0,2.074,1.382H0Z" stroke="none"/>
          <path d="M 1.036787152290344 1.549720764160156e-06 L 2.073577165603638 1.382381439208984 L -2.86102294921875e-06 1.382381439208984 L 1.036787152290344 1.549720764160156e-06 Z" stroke="none" fill="#fff"/>
        </g>
        <g id="Polígono_6" data-name="Polígono 6" transform="translate(5.906 2.341) rotate(49)" fill="none">
          <path d="M1.037,0,2.074,1.382H0Z" stroke="none"/>
          <path d="M 1.036787033081055 1.430511474609375e-06 L 2.073576927185059 1.382381439208984 L -2.86102294921875e-06 1.382381439208984 L 1.036787033081055 1.430511474609375e-06 Z" stroke="none" fill="#fff"/>
        </g>
        <path id="Trazado_43309" data-name="Trazado 43309" d="M283.874,18.11a2.152,2.152,0,0,0-1.961,1.029v-.871h-1.052v6.046h1.052v-3.2a2.065,2.065,0,0,1,.484-1.506,1.709,1.709,0,0,1,1.271-.493,1.476,1.476,0,0,1,1.1.406,1.556,1.556,0,0,1,.4,1.144v3.653h1.053V20.6a2.527,2.527,0,0,0-.641-1.821,2.247,2.247,0,0,0-1.705-.672" transform="translate(-272.686 -15.751)" fill="#1fa3a5"/>
        <path id="Trazado_43310" data-name="Trazado 43310" d="M324.458,18.11a3.056,3.056,0,0,0-2.288.9,3.12,3.12,0,0,0-.882,2.274,3.088,3.088,0,0,0,.9,2.281,3.179,3.179,0,0,0,2.341.9,2.955,2.955,0,0,0,2.661-1.367L326.3,22.6a1.893,1.893,0,0,1-1.743.884,2.314,2.314,0,0,1-1.445-.452,1.991,1.991,0,0,1-.748-1.254h5.069a3.08,3.08,0,0,0,.036-.472,3.264,3.264,0,0,0-.84-2.262,2.8,2.8,0,0,0-2.171-.933m-2.093,2.747a2.008,2.008,0,0,1,2.093-1.754,1.941,1.941,0,0,1,1.27.452,2.039,2.039,0,0,1,.679,1.306Z" transform="translate(-306.93 -15.751)" fill="#1fa3a5"/>
        <path id="Trazado_43311" data-name="Trazado 43311" d="M370.783,19.306a2.567,2.567,0,0,0-2.276-1.2,2.951,2.951,0,0,0-2.189.914,3.243,3.243,0,0,0,0,4.475,2.94,2.94,0,0,0,2.189.919,2.578,2.578,0,0,0,2.276-1.21v.86a1.758,1.758,0,0,1-.54,1.357,2.09,2.09,0,0,1-1.482.5A1.976,1.976,0,0,1,366.79,24.9l-.919.52a2.533,2.533,0,0,0,1.116,1.089,3.77,3.77,0,0,0,1.754.381,3.323,3.323,0,0,0,2.178-.744,2.549,2.549,0,0,0,.9-2.087v-5.8h-1.04Zm-.618,3.484a2.17,2.17,0,1,1,.618-1.532,2.087,2.087,0,0,1-.618,1.532" transform="translate(-344.314 -15.748)" fill="#1fa3a5"/>
        <path id="Trazado_43312" data-name="Trazado 43312" d="M418.873,19.308a2.567,2.567,0,0,0-2.287-1.2,2.9,2.9,0,0,0-2.166.926,3.307,3.307,0,0,0,0,4.524,2.9,2.9,0,0,0,2.166.926,2.564,2.564,0,0,0,2.287-1.2v1.026h1.053V18.268h-1.053Zm-.616,3.526a2.192,2.192,0,0,1-3.061,0,2.233,2.233,0,0,1,0-3.085,2.192,2.192,0,0,1,3.061,0,2.236,2.236,0,0,1,0,3.085" transform="translate(-385.061 -15.75)" fill="#1fa3a5"/>
        <rect id="Rectángulo_18629" data-name="Rectángulo 18629" width="1.053" height="6.049" transform="translate(36.16 2.518)" fill="#1fa3a5"/>
        <path id="Trazado_43313" data-name="Trazado 43313" d="M463.39,4.1a.7.7,0,0,0,.7-.7.7.7,0,0,0-.206-.5.668.668,0,0,0-.492-.214.679.679,0,0,0-.509.212.7.7,0,0,0-.206.5.679.679,0,0,0,.2.5.692.692,0,0,0,.512.2" transform="translate(-426.694 -2.684)" fill="#1fa3a5"/>
        <path id="Trazado_43314" data-name="Trazado 43314" d="M237.511,19.582l-2.128.325a3.233,3.233,0,0,0-2.294,0l-2.172-.322.391,2.349a3.207,3.207,0,0,0-.092.778,2.983,2.983,0,0,0,2.954,3.013h.059a2.941,2.941,0,0,0,2.142-.871,2.893,2.893,0,0,0,.882-2.142,3.212,3.212,0,0,0-.092-.777Zm-5.82,1.432-.159-.829.84.119Zm3.981,3.15a2.022,2.022,0,0,1-3.46-1.454,1.976,1.976,0,0,1,.585-1.456,2.062,2.062,0,0,1,2.875,0,2.1,2.1,0,0,1,0,2.91m1.063-3.129-.69-.7.833-.135Z" transform="translate(-230.38 -16.998)" fill="#1fa3a5"/>
      </g>
    </g>
  </g>
</svg>
