<svg xmlns="http://www.w3.org/2000/svg" width="68.681" height="41.209" viewBox="0 0 68.681 41.209">
  <g id="Grupo_20624" data-name="Grupo 20624" transform="translate(-628 -1777)">
    <rect id="Rectángulo_18557" data-name="Rectángulo 18557" width="68.681" height="41.209" rx="3" transform="translate(628 1777)" fill="#fff"/>
    <g id="Grupo_20623" data-name="Grupo 20623" transform="translate(633 1792)">
      <g id="Grupo_18628" data-name="Grupo 18628" transform="translate(14.388 1.76)">
        <path id="Trazado_25840" data-name="Trazado 25840" d="M-584.7-355.186a2.806,2.806,0,0,1,1.538-.292,2.587,2.587,0,0,1,2.081,3.279,2.6,2.6,0,0,1-2.953,1.932,2.583,2.583,0,0,1-2.2-2.533c-.006-1.243,0-2.485,0-3.728,0-.55.262-.837.753-.84a.727.727,0,0,1,.777.823C-584.7-356.105-584.7-355.666-584.7-355.186Zm2.19,2.356a1.12,1.12,0,0,0-1.085-1.232,1.141,1.141,0,0,0-1.155,1.178,1.162,1.162,0,0,0,1.082,1.217A1.12,1.12,0,0,0-582.515-352.83Z" transform="translate(586.239 357.578)" fill="#1660aa"/>
        <path id="Trazado_25841" data-name="Trazado 25841" d="M-429.868-354.609c0-.652-.005-1.3,0-1.957.005-.5.251-.775.68-.8a.708.708,0,0,1,.84.718c.035.4.018.811.016,1.217,0,.186.044.244.235.153a2.408,2.408,0,0,1,3.341,1.585,2.632,2.632,0,0,1-1.888,3.387,2.585,2.585,0,0,1-3.219-2.423c-.022-.627,0-1.255,0-1.883Zm3.722,1.729a1.112,1.112,0,0,0-1.143-1.174,1.113,1.113,0,0,0-1.088,1.19,1.132,1.132,0,0,0,1.124,1.2A1.135,1.135,0,0,0-426.145-352.88Z" transform="translate(441.47 357.576)" fill="#f79c36"/>
        <path id="Trazado_25842" data-name="Trazado 25842" d="M-502.879-328.894c0,.43,0,.763,0,1.094a.715.715,0,0,1-.446.736.712.712,0,0,1-.849-.153c-.1-.106-.169-.132-.3-.057A2.452,2.452,0,0,1-508.1-329.6a2.577,2.577,0,0,1,2.389-2.625,2.594,2.594,0,0,1,2.8,2.1A8.189,8.189,0,0,1-502.879-328.894Zm-3.712-.709a1.113,1.113,0,0,0,1.109,1.206,1.143,1.143,0,0,0,1.122-1.172,1.135,1.135,0,0,0-1.106-1.219A1.1,1.1,0,0,0-506.591-329.6Z" transform="translate(513.9 334.309)" fill="#66b464"/>
        <path id="Trazado_25843" data-name="Trazado 25843" d="M-354.355-329.428c.349-.786.673-1.526,1.006-2.263a.7.7,0,0,1,.883-.466c.529.148.7.548.461,1.1-.61,1.382-1.228,2.761-1.843,4.141-.21.471-.412.946-.63,1.414a.688.688,0,0,1-1,.394.684.684,0,0,1-.354-.98c.174-.419.346-.842.556-1.244a.8.8,0,0,0-.018-.853c-.514-.923-.995-1.864-1.487-2.8-.259-.493-.173-.906.229-1.114.422-.218.819-.054,1.076.452C-355.1-330.927-354.744-330.2-354.355-329.428Z" transform="translate(373.932 334.273)" fill="#ed4936"/>
        <path id="Trazado_25844" data-name="Trazado 25844" d="M-132.364-326.923a2.434,2.434,0,0,1-1.794-.587.73.73,0,0,1-.135-1.022.706.706,0,0,1,1.021-.085,1.257,1.257,0,0,0,1.073.255c.113-.027.263-.076.26-.219,0-.119-.137-.167-.243-.194-.322-.081-.649-.141-.969-.227a1.509,1.509,0,0,1-1.219-1.43,1.547,1.547,0,0,1,1.145-1.608,2.494,2.494,0,0,1,2.253.324.754.754,0,0,1,.289,1.024.714.714,0,0,1-1.03.191,1.249,1.249,0,0,0-1.01-.226c-.092.028-.206.048-.212.171s.109.162.2.186c.391.106.791.183,1.178.3a1.425,1.425,0,0,1,1.08,1.306,1.544,1.544,0,0,1-.781,1.521A2.024,2.024,0,0,1-132.364-326.923Z" transform="translate(167.956 334.255)" fill="#ed4936"/>
        <path id="Trazado_25845" data-name="Trazado 25845" d="M-280.489-355.026c0-.48,0-.96,0-1.44,0-.164-.018-.25-.22-.292a.625.625,0,0,1-.53-.66.627.627,0,0,1,.514-.672c.2-.046.231-.142.261-.321a2.088,2.088,0,0,1,2.182-1.8.728.728,0,0,1,.75.666.71.71,0,0,1-.655.754c-.286.041-.571.065-.709.373-.081.181-.079.312.18.289a1.569,1.569,0,0,1,.332,0,.689.689,0,0,1,.633.731.686.686,0,0,1-.672.655c-.562.045-.562.045-.562.6,0,.8,0,1.6,0,2.4,0,.547-.27.842-.754.845s-.748-.3-.75-.843C-280.49-354.164-280.489-354.595-280.489-355.026Z" transform="translate(303.86 360.207)" fill="#145fa9"/>
        <path id="Trazado_25846" data-name="Trazado 25846" d="M-73.477-349.521c0-.185-.007-.37,0-.554.014-.307.054-.581-.392-.665-.279-.053-.393-.354-.369-.653a.6.6,0,0,1,.473-.59.314.314,0,0,0,.289-.4,2.814,2.814,0,0,1,0-.517.73.73,0,0,1,.773-.725.732.732,0,0,1,.735.761,2.109,2.109,0,0,1,0,.3c-.037.354-.013.6.477.559a.633.633,0,0,1,.613.7.643.643,0,0,1-.69.661c-.371-.022-.418.13-.4.438.022.479.005.96.007,1.44,0,.327.141.493.5.49a.691.691,0,0,1,.77.7.769.769,0,0,1-.767.781,1.825,1.825,0,0,1-2.01-1.871C-73.486-348.954-73.477-349.237-73.477-349.521Z" transform="translate(112.216 354.116)" fill="#1761aa"/>
        <path id="Trazado_25847" data-name="Trazado 25847" d="M-191.317-329.551c0-.6-.007-1.206,0-1.808a.746.746,0,0,1,1.191-.651.387.387,0,0,0,.429.02,2.183,2.183,0,0,1,1.478-.14,1.049,1.049,0,0,1,.539.3.641.641,0,0,1,.121.719.59.59,0,0,1-.605.4,5.739,5.739,0,0,0-.959-.029.692.692,0,0,0-.693.781c0,.726,0,1.452,0,2.177-.005.551-.273.829-.769.822-.479-.007-.727-.281-.731-.819C-191.321-328.37-191.317-328.96-191.317-329.551Z" transform="translate(220.612 334.277)" fill="#f79b35"/>
        <path id="Trazado_25848" data-name="Trazado 25848" d="M-224.228-329.536c0,.6,0,1.2,0,1.8a.727.727,0,0,1-.743.818.746.746,0,0,1-.793-.818q-.014-1.786,0-3.573a.764.764,0,0,1,.774-.845c.469,0,.756.311.761.845C-224.223-330.715-224.228-330.125-224.228-329.536Z" transform="translate(252.509 334.23)" fill="#68b565"/>
        <path id="Trazado_25849" data-name="Trazado 25849" d="M-224.5-358.7a.7.7,0,0,1-.731-.743.716.716,0,0,1,.735-.746.729.729,0,0,1,.758.766A.726.726,0,0,1-224.5-358.7Z" transform="translate(252.005 360.195)" fill="#68b565"/>
        <path id="Trazado_25850" data-name="Trazado 25850" d="M-21.862-353.411c.082-.144.164-.292.252-.437a.139.139,0,0,1,.153-.079.135.135,0,0,1,.1.141c0,.159.009.319,0,.478,0,.1.045.252-.108.272s-.084-.176-.193-.261c-.137.211-.3.345-.438.007-.162.029-.045.323-.243.251-.154-.057-.07-.238-.089-.365s.057-.268-.062-.337a.307.307,0,0,0-.273.054c-.1.085-.03.23-.051.347s.071.3-.1.3-.1-.187-.114-.3c-.016-.172.064-.386-.221-.417a.082.082,0,0,1-.065-.112c.032-.074.108-.09.185-.095.255-.016.507.04.758.042C-22.025-353.918-22.1-353.554-21.862-353.411Z" transform="translate(65.079 354.429)" fill="#f8a84e"/>
      </g>
      <g id="Grupo_18629" data-name="Grupo 18629" transform="translate(0 0)">
        <path id="Trazado_25851" data-name="Trazado 25851" d="M-740.76-298.809a5.014,5.014,0,0,1-.157.65c-.52,1.359-1.923,1.59-3.1.518a1.946,1.946,0,0,1-.47-2.285c.062-.148.118-.3.177-.448a6.5,6.5,0,0,0,1.2-.892,3.484,3.484,0,0,0,2.154.825A4.123,4.123,0,0,1-740.76-298.809Z" transform="translate(746.983 308.301)" fill="#f28eb0"/>
        <path id="Trazado_25852" data-name="Trazado 25852" d="M-695.149-302.521a4.121,4.121,0,0,0-.191-1.632,3.043,3.043,0,0,0,2.215-1.127,4.952,4.952,0,0,1,1.167.535,6.847,6.847,0,0,1,.606.658,1.634,1.634,0,0,1-.375,2.267,2.117,2.117,0,0,1-3.293-.52C-695.062-302.4-695.106-302.46-695.149-302.521Z" transform="translate(701.372 312.013)" fill="#145fa9"/>
        <path id="Trazado_25853" data-name="Trazado 25853" d="M-703.039-392.921a3.986,3.986,0,0,1,.3-.92,1.632,1.632,0,0,1,2.108-.749,2.093,2.093,0,0,1,1.269,2.989,1.454,1.454,0,0,0-.066.248l0-.008-.08.081a5.8,5.8,0,0,0-1.071.817c-.309-.116-.443-.474-.775-.559a.525.525,0,0,0-.208-.642c-.08.2.131.36-.014.554a.653.653,0,0,0-.45-.206,1.513,1.513,0,0,0-.873-.282A5.326,5.326,0,0,1-703.039-392.921Z" transform="translate(708.493 394.725)" fill="#fce283"/>
        <path id="Trazado_25854" data-name="Trazado 25854" d="M-771.595-337.338a6.5,6.5,0,0,1-1.2.892,3,3,0,0,1-1.056.21,1.688,1.688,0,0,1-1.612-1.973,2.029,2.029,0,0,1,2.285-2.066c.354.083.623.378,1,.4A2.5,2.5,0,0,0-771.595-337.338Z" transform="translate(775.473 344.373)" fill="#ed4735"/>
        <path id="Trazado_25855" data-name="Trazado 25855" d="M-670.323-350.965a5.8,5.8,0,0,1,1.071-.818c.042-.012.092-.016.08-.081l0,.008a2.087,2.087,0,0,0,.617-.123,1.642,1.642,0,0,1,2.01,1.568,2.085,2.085,0,0,1-2.277,2.451,4.96,4.96,0,0,0-1.167-.535,1.552,1.552,0,0,0,.219-1.585A9.851,9.851,0,0,0-670.323-350.965Z" transform="translate(678.238 355.227)" fill="#66b464"/>
        <path id="Trazado_25856" data-name="Trazado 25856" d="M-755.293-383.076c-.378-.023-.647-.319-1-.4-.154-.162-.312-.321-.461-.486a1.646,1.646,0,0,1,.278-2.511,2.1,2.1,0,0,1,3.187.5c.051.07.105.137.158.205a5.318,5.318,0,0,0,.14,1.323,6.763,6.763,0,0,0-.774.057A2.568,2.568,0,0,0-755.293-383.076Z" transform="translate(758.588 387.577)" fill="#f79b35"/>
        <path id="Trazado_25857" data-name="Trazado 25857" d="M-733.219-351.8a2.567,2.567,0,0,1,1.527-1.315,6.758,6.758,0,0,1,.774-.057,1.511,1.511,0,0,1,.873.282c-.222.258-.2.381.077.485.064.024.18-.009.169.095-.012.119-.123.135-.23.138-.076,0-.207-.066-.2.072s.141.13.236.121a.4.4,0,0,0,.4-.286.8.8,0,0,1,.225-.33c.332.085.466.442.775.559a9.888,9.888,0,0,1,.551.886,1.552,1.552,0,0,1-.219,1.585,3.043,3.043,0,0,1-2.215,1.127,3.484,3.484,0,0,1-2.154-.825A2.5,2.5,0,0,1-733.219-351.8Zm2.326.532c0-.164-.043-.3-.238-.305s-.452.313-.452.56c0,.153.057.269.223.286C-731.154-350.708-730.9-351.006-730.893-351.269Zm1,.44c-.007-.149-.024-.32-.229-.306-.306.021-.4.265-.456.516-.033.159.022.325.222.31C-730.058-350.331-729.953-350.562-729.894-350.829Zm-.63.828a1.247,1.247,0,0,1-1.105-.48C-731.5-349.783-731.123-349.631-730.524-350Z" transform="translate(736.514 356.302)" fill="#faddbe"/>
        <path id="Trazado_25858" data-name="Trazado 25858" d="M-691.189-353.415a.8.8,0,0,0-.225.331.4.4,0,0,1-.4.286c-.1.01-.233,0-.236-.121s.128-.071.2-.072c.107,0,.219-.018.23-.138.01-.1-.106-.071-.17-.095-.279-.1-.3-.227-.076-.485a.652.652,0,0,1,.45.206c.145-.194-.066-.352.014-.554A.525.525,0,0,1-691.189-353.415Z" transform="translate(698.329 357.118)" fill="#632f19"/>
        <path id="Trazado_25859" data-name="Trazado 25859" d="M-656.02-350.039c.012.065-.038.069-.08.081Z" transform="translate(665.086 353.403)" fill="#fefefe"/>
        <path id="Trazado_25860" data-name="Trazado 25860" d="M-709.276-331.622c-.008.263-.26.561-.466.54-.166-.017-.223-.133-.223-.286,0-.248.253-.567.452-.56S-709.275-331.786-709.276-331.622Z" transform="translate(714.897 336.654)" fill="#632f19"/>
        <path id="Trazado_25861" data-name="Trazado 25861" d="M-696.055-325.795c-.059.267-.164.5-.464.52-.2.015-.254-.151-.222-.31.051-.251.151-.5.456-.516C-696.079-326.115-696.062-325.943-696.055-325.795Z" transform="translate(702.675 331.267)" fill="#632f19"/>
        <path id="Trazado_25862" data-name="Trazado 25862" d="M-709.466-316.915c-.6.37-.977.218-1.105-.48A1.247,1.247,0,0,0-709.466-316.915Z" transform="translate(715.456 323.216)" fill="#f79b35"/>
      </g>
    </g>
  </g>
</svg>
