<svg xmlns="http://www.w3.org/2000/svg" width="68.681" height="41.209" viewBox="0 0 68.681 41.209">
  <g id="Grupo_20621" data-name="Grupo 20621" transform="translate(-779 -1729)">
    <rect id="Rectángulo_18557" data-name="Rectángulo 18557" width="68.681" height="41.209" rx="3" transform="translate(779 1729)" fill="#1e1e1e"/>
    <g id="Grupo_20620" data-name="Grupo 20620" transform="translate(788 1743)">
      <path id="Trazado_42620" data-name="Trazado 42620" d="M0,10.531a4.318,4.318,0,0,1,4.435-4.4A4.073,4.073,0,0,1,8.58,8.972l-1.958.483A2.21,2.21,0,0,0,4.447,8.017a2.364,2.364,0,0,0-2.393,2.5,2.4,2.4,0,0,0,2.393,2.526A2.178,2.178,0,0,0,6.622,11.63l1.958.5a4.033,4.033,0,0,1-4.109,2.8A4.327,4.327,0,0,1,0,10.531" transform="translate(0 -5.519)" fill="#d00b23"/>
      <rect id="Rectángulo_18371" data-name="Rectángulo 18371" width="1.934" height="6.163" transform="translate(11.444 3.078)" fill="#f2f0df"/>
      <path id="Trazado_42621" data-name="Trazado 42621" d="M174.137,7.827v8.459h-1.631L168.7,11.44v4.846h-2.006V7.827h1.631l3.806,4.846V7.827Z" transform="translate(-150.04 -7.045)" fill="#f2f0df"/>
      <path id="Trazado_42622" data-name="Trazado 42622" d="M281.773,12.056a3.927,3.927,0,0,1-4,4.229h-3.9V7.827h3.9a3.914,3.914,0,0,1,4,4.229m-2.03-.036a2.119,2.119,0,0,0-2.018-2.393h-1.873v4.858h1.873a2.187,2.187,0,0,0,2.018-2.465" transform="translate(-246.511 -7.045)" fill="#f2f0df"/>
      <path id="Trazado_42623" data-name="Trazado 42623" d="M432.71,9.639v1.474H436.5v1.752H432.71v1.607h4.4v1.813h-6.356V7.827h6.368V9.639Z" transform="translate(-387.721 -7.045)" fill="#f2f0df"/>
      <path id="Trazado_42624" data-name="Trazado 42624" d="M113.478,1.293A1.293,1.293,0,1,1,112.185,0a1.293,1.293,0,0,1,1.293,1.293" transform="translate(-99.814 0)" fill="#d00b23"/>
      <rect id="Rectángulo_18372" data-name="Rectángulo 18372" width="1.933" height="6.163" transform="translate(38.113 0.559)" fill="#f2f0df"/>
      <path id="Trazado_42625" data-name="Trazado 42625" d="M379.316,72.1a1.293,1.293,0,1,0,1.293,1.293,1.293,1.293,0,0,0-1.293-1.293" transform="translate(-340.259 -64.894)" fill="#d00b23"/>
      <path id="Trazado_42626" data-name="Trazado 42626" d="M9.156,115.588v1.126H8.862v-.142a.439.439,0,0,1-.36.174c-.3,0-.445-.2-.445-.5v-.656h.294v.6c0,.171.078.283.24.283s.271-.129.271-.329v-.554Z" transform="translate(-7.252 -104.041)" fill="#f2f0df"/>
      <path id="Trazado_42627" data-name="Trazado 42627" d="M23.053,115.774v.659h-.294v-.6c0-.171-.078-.28-.24-.28s-.271.129-.271.327v.556h-.294v-1.126h.294v.142a.447.447,0,0,1,.363-.174c.294,0,.443.2.443.5" transform="translate(-19.761 -103.76)" fill="#f2f0df"/>
      <path id="Trazado_42628" data-name="Trazado 42628" d="M43.009,115.763v.67h-.294v-.607c0-.169-.062-.276-.216-.276s-.238.118-.238.309v.574h-.3v-.607c0-.167-.06-.276-.211-.276s-.243.12-.243.318v.565h-.294v-1.126h.294v.133a.408.408,0,0,1,.334-.165.376.376,0,0,1,.338.169.468.468,0,0,1,.38-.169.43.43,0,0,1,.445.487" transform="translate(-37.1 -103.76)" fill="#f2f0df"/>
      <path id="Trazado_42629" data-name="Trazado 42629" d="M62.806,115.588v1.126h-.294v-.142a.439.439,0,0,1-.36.174c-.3,0-.445-.2-.445-.5v-.656H62v.6c0,.171.078.283.24.283s.271-.129.271-.329v-.554Z" transform="translate(-55.543 -104.041)" fill="#f2f0df"/>
      <path id="Trazado_42630" data-name="Trazado 42630" d="M76.7,115.774v.659h-.294v-.6c0-.171-.078-.28-.24-.28s-.271.129-.271.327v.556H75.6v-1.126H75.9v.142a.447.447,0,0,1,.363-.174c.294,0,.443.2.443.5" transform="translate(-68.051 -103.76)" fill="#f2f0df"/>
      <path id="Trazado_42631" data-name="Trazado 42631" d="M89.913,110.6v1.624h-.3v-.138a.447.447,0,0,1-.363.169.6.6,0,0,1,0-1.188.446.446,0,0,1,.363.167V110.6Zm-.287,1.059a.317.317,0,0,0-.32-.329.332.332,0,0,0,0,.663.319.319,0,0,0,.32-.334" transform="translate(-79.837 -99.55)" fill="#f2f0df"/>
      <path id="Trazado_42632" data-name="Trazado 42632" d="M103.063,115.87a.6.6,0,1,1,.6.594.584.584,0,0,1-.6-.594m.919,0a.316.316,0,1,0-.316.327.31.31,0,0,0,.316-.327" transform="translate(-92.767 -103.76)" fill="#f2f0df"/>
      <path id="Trazado_42633" data-name="Trazado 42633" d="M123.341,110.6v1.624h-.3v-.138a.447.447,0,0,1-.363.169.6.6,0,0,1,0-1.188.446.446,0,0,1,.363.167V110.6Zm-.287,1.059a.317.317,0,0,0-.32-.329.332.332,0,0,0,0,.663.319.319,0,0,0,.32-.334" transform="translate(-109.926 -99.55)" fill="#f2f0df"/>
      <path id="Trazado_42634" data-name="Trazado 42634" d="M136.491,115.87a.57.57,0,0,1,.589-.594.593.593,0,0,1,.574.683h-.874a.293.293,0,0,0,.327.256.287.287,0,0,0,.274-.149l.265.078a.615.615,0,0,1-1.155-.274m.883-.1a.276.276,0,0,0-.3-.249.289.289,0,0,0-.3.249Z" transform="translate(-122.856 -103.76)" fill="#f2f0df"/>
      <path id="Trazado_42635" data-name="Trazado 42635" d="M155.22,115.87a.57.57,0,0,1,.589-.594.593.593,0,0,1,.574.683h-.874a.293.293,0,0,0,.327.256.287.287,0,0,0,.274-.149l.265.078a.615.615,0,0,1-1.155-.274m.883-.1a.276.276,0,0,0-.3-.249.289.289,0,0,0-.3.249Z" transform="translate(-139.714 -103.76)" fill="#f2f0df"/>
      <path id="Trazado_42636" data-name="Trazado 42636" d="M170.26,115.774v.659h-.294v-.6c0-.171-.078-.28-.24-.28s-.271.129-.271.327v.556h-.294v-1.126h.294v.142a.447.447,0,0,1,.363-.174c.294,0,.443.2.443.5" transform="translate(-152.262 -103.76)" fill="#f2f0df"/>
      <path id="Trazado_42637" data-name="Trazado 42637" d="M182.638,113.39a.676.676,0,0,1-.263.053.352.352,0,0,1-.376-.4v-.483h-.189V112.3H182v-.365h.3v.365h.329v.258h-.329v.483a.125.125,0,0,0,.138.142.274.274,0,0,0,.133-.031Z" transform="translate(-163.647 -100.753)" fill="#f2f0df"/>
      <path id="Trazado_42638" data-name="Trazado 42638" d="M192.786,115.391v.276c-.24-.038-.372.073-.372.376v.49h-.294v-1.126h.294v.167a.339.339,0,0,1,.372-.182" transform="translate(-172.928 -103.859)" fill="#f2f0df"/>
      <path id="Trazado_42639" data-name="Trazado 42639" d="M199.382,115.87a.57.57,0,0,1,.59-.594.593.593,0,0,1,.574.683h-.874a.293.293,0,0,0,.327.256.287.287,0,0,0,.274-.149l.265.078a.615.615,0,0,1-1.155-.274m.883-.1a.276.276,0,0,0-.3-.249.289.289,0,0,0-.3.249Z" transform="translate(-179.464 -103.76)" fill="#f2f0df"/>
      <path id="Trazado_42640" data-name="Trazado 42640" d="M212.682,113.39a.676.676,0,0,1-.263.053.352.352,0,0,1-.376-.4v-.483h-.189V112.3h.189v-.365h.3v.365h.329v.258h-.329v.483a.125.125,0,0,0,.138.142.274.274,0,0,0,.133-.031Z" transform="translate(-190.69 -100.753)" fill="#f2f0df"/>
      <path id="Trazado_42641" data-name="Trazado 42641" d="M220.94,115.87a.57.57,0,0,1,.589-.594.593.593,0,0,1,.574.683h-.874a.293.293,0,0,0,.327.256.287.287,0,0,0,.274-.149l.265.078a.615.615,0,0,1-1.155-.274m.883-.1a.276.276,0,0,0-.3-.249.289.289,0,0,0-.3.249Z" transform="translate(-198.868 -103.76)" fill="#f2f0df"/>
      <path id="Trazado_42642" data-name="Trazado 42642" d="M235.98,115.774v.659h-.294v-.6c0-.171-.078-.28-.24-.28s-.271.129-.271.327v.556h-.294v-1.126h.294v.142a.447.447,0,0,1,.363-.174c.294,0,.443.2.443.5" transform="translate(-211.417 -103.76)" fill="#f2f0df"/>
      <path id="Trazado_42643" data-name="Trazado 42643" d="M248.4,110.746a.176.176,0,1,1,.176.174.172.172,0,0,1-.176-.174m.024.332h.3V112.2h-.3Z" transform="translate(-223.584 -99.531)" fill="#f2f0df"/>
      <path id="Trazado_42644" data-name="Trazado 42644" d="M256.337,115.763v.67h-.294v-.607c0-.169-.062-.276-.216-.276s-.238.118-.238.309v.574h-.3v-.607c0-.167-.06-.276-.211-.276s-.243.12-.243.318v.565h-.294v-1.126h.294v.133a.409.409,0,0,1,.334-.165.376.376,0,0,1,.338.169.468.468,0,0,1,.38-.169.43.43,0,0,1,.445.487" transform="translate(-229.117 -103.76)" fill="#f2f0df"/>
      <path id="Trazado_42645" data-name="Trazado 42645" d="M274.99,110.746a.176.176,0,1,1,.176.174.172.172,0,0,1-.176-.174m.024.332h.3V112.2h-.3Z" transform="translate(-247.519 -99.531)" fill="#f2f0df"/>
      <path id="Trazado_42646" data-name="Trazado 42646" d="M280.446,115.87a.57.57,0,0,1,.59-.594.593.593,0,0,1,.574.683h-.874a.293.293,0,0,0,.327.256.287.287,0,0,0,.274-.149l.265.078a.615.615,0,0,1-1.155-.274m.883-.1a.276.276,0,0,0-.3-.249.289.289,0,0,0-.3.249Z" transform="translate(-252.43 -103.76)" fill="#f2f0df"/>
      <path id="Trazado_42647" data-name="Trazado 42647" d="M295.487,115.774v.659h-.294v-.6c0-.171-.078-.28-.24-.28s-.271.129-.271.327v.556h-.294v-1.126h.294v.142a.447.447,0,0,1,.363-.174c.294,0,.443.2.443.5" transform="translate(-264.979 -103.76)" fill="#f2f0df"/>
      <path id="Trazado_42648" data-name="Trazado 42648" d="M307.866,113.39a.676.676,0,0,1-.263.053.352.352,0,0,1-.376-.4v-.483h-.189V112.3h.189v-.365h.3v.365h.329v.258h-.329v.483a.125.125,0,0,0,.138.142.274.274,0,0,0,.133-.031Z" transform="translate(-276.365 -100.753)" fill="#f2f0df"/>
      <path id="Trazado_42649" data-name="Trazado 42649" d="M316.123,115.87a.6.6,0,1,1,.6.594.584.584,0,0,1-.6-.594m.919,0a.316.316,0,1,0-.316.327.31.31,0,0,0,.316-.327" transform="translate(-284.543 -103.76)" fill="#f2f0df"/>
      <path id="Trazado_42650" data-name="Trazado 42650" d="M335.61,110.746a.176.176,0,1,1,.176.174.172.172,0,0,1-.176-.174m.024.332h.3V112.2h-.3Z" transform="translate(-302.083 -99.531)" fill="#f2f0df"/>
      <path id="Trazado_42651" data-name="Trazado 42651" d="M342.856,115.774v.659h-.294v-.6c0-.171-.078-.28-.24-.28s-.271.129-.271.327v.556h-.294v-1.126h.294v.142a.447.447,0,0,1,.363-.174c.294,0,.443.2.443.5" transform="translate(-307.616 -103.76)" fill="#f2f0df"/>
      <path id="Trazado_42652" data-name="Trazado 42652" d="M356.067,110.6v1.624h-.3v-.138a.447.447,0,0,1-.363.169.6.6,0,0,1,0-1.188.446.446,0,0,1,.363.167V110.6Zm-.287,1.059a.317.317,0,0,0-.32-.329.332.332,0,0,0,0,.663.319.319,0,0,0,.32-.334" transform="translate(-319.403 -99.55)" fill="#f2f0df"/>
      <path id="Trazado_42653" data-name="Trazado 42653" d="M369.216,115.87a.57.57,0,0,1,.589-.594.593.593,0,0,1,.574.683h-.874a.293.293,0,0,0,.327.256.287.287,0,0,0,.274-.149l.265.078a.615.615,0,0,1-1.155-.274m.883-.1a.276.276,0,0,0-.3-.249.289.289,0,0,0-.3.249Z" transform="translate(-332.332 -103.76)" fill="#f2f0df"/>
      <path id="Trazado_42654" data-name="Trazado 42654" d="M384.37,115.87a.564.564,0,0,1-.554.594.452.452,0,0,1-.365-.169v.605h-.294v-1.593h.294v.136a.45.45,0,0,1,.365-.167.563.563,0,0,1,.554.594m-.289,0a.31.31,0,0,0-.316-.329.332.332,0,0,0,0,.663.312.312,0,0,0,.316-.334" transform="translate(-344.88 -103.76)" fill="#f2f0df"/>
      <path id="Trazado_42655" data-name="Trazado 42655" d="M396.831,115.87a.57.57,0,0,1,.589-.594.593.593,0,0,1,.574.683h-.874a.293.293,0,0,0,.327.256.287.287,0,0,0,.274-.149l.265.078a.615.615,0,0,1-1.155-.274m.883-.1a.276.276,0,0,0-.3-.249.289.289,0,0,0-.3.249Z" transform="translate(-357.188 -103.76)" fill="#f2f0df"/>
      <path id="Trazado_42656" data-name="Trazado 42656" d="M411.872,115.774v.659h-.294v-.6c0-.171-.078-.28-.24-.28s-.271.129-.271.327v.556h-.294v-1.126h.294v.142a.447.447,0,0,1,.363-.174c.294,0,.443.2.443.5" transform="translate(-369.737 -103.76)" fill="#f2f0df"/>
      <path id="Trazado_42657" data-name="Trazado 42657" d="M425.082,110.6v1.624h-.3v-.138a.447.447,0,0,1-.363.169.6.6,0,0,1,0-1.188.446.446,0,0,1,.363.167V110.6Zm-.287,1.059a.317.317,0,0,0-.32-.329.332.332,0,0,0,0,.663.319.319,0,0,0,.32-.334" transform="translate(-381.523 -99.55)" fill="#f2f0df"/>
      <path id="Trazado_42658" data-name="Trazado 42658" d="M438.655,110.746a.176.176,0,1,1,.176.174.172.172,0,0,1-.176-.174m.024.332h.3V112.2h-.3Z" transform="translate(-394.834 -99.531)" fill="#f2f0df"/>
      <path id="Trazado_42659" data-name="Trazado 42659" d="M444.112,115.87a.57.57,0,0,1,.59-.594.593.593,0,0,1,.574.683H444.4a.293.293,0,0,0,.327.256.287.287,0,0,0,.274-.149l.265.078a.615.615,0,0,1-1.155-.274m.883-.1a.276.276,0,0,0-.3-.249.289.289,0,0,0-.3.249Z" transform="translate(-399.746 -103.76)" fill="#f2f0df"/>
      <path id="Trazado_42660" data-name="Trazado 42660" d="M459.152,115.774v.659h-.294v-.6c0-.171-.078-.28-.24-.28s-.271.129-.271.327v.556h-.294v-1.126h.294v.142a.447.447,0,0,1,.363-.174c.294,0,.443.2.443.5" transform="translate(-412.294 -103.76)" fill="#f2f0df"/>
      <path id="Trazado_42661" data-name="Trazado 42661" d="M471.531,113.39a.676.676,0,0,1-.263.053.352.352,0,0,1-.376-.4v-.483H470.7V112.3h.189v-.365h.3v.365h.329v.258h-.329v.483a.125.125,0,0,0,.138.142.274.274,0,0,0,.134-.031Z" transform="translate(-423.68 -100.753)" fill="#f2f0df"/>
      <path id="Trazado_42662" data-name="Trazado 42662" d="M479.789,115.87a.57.57,0,0,1,.59-.594.593.593,0,0,1,.574.683h-.874a.293.293,0,0,0,.327.256.287.287,0,0,0,.274-.149l.265.078a.615.615,0,0,1-1.155-.274m.883-.1a.276.276,0,0,0-.3-.249.289.289,0,0,0-.3.249Z" transform="translate(-431.859 -103.76)" fill="#f2f0df"/>
    </g>
  </g>
</svg>
