<svg xmlns="http://www.w3.org/2000/svg" width="81.33" height="48.798" viewBox="0 0 81.33 48.798">
  <g id="Grupo_20638" data-name="Grupo 20638" transform="translate(-747 -1776)">
    <rect id="Rectángulo_18557" data-name="Rectángulo 18557" width="81.33" height="48.798" rx="3" transform="translate(747 1776)" fill="#e8f7fc"/>
    <g id="Grupo_20635" data-name="Grupo 20635" transform="translate(762 1783)">
      <g id="edye_principal" data-name="edye principal" transform="translate(25.552 17.063)">
        <g id="Grupo_19762" data-name="Grupo 19762" transform="translate(-25.552 -17.063)">
          <g id="Grupo_19761" data-name="Grupo 19761">
            <path id="Trazado_42297" data-name="Trazado 42297" d="M47.338,59.521a1.225,1.225,0,0,0-1.283,1.319,1.406,1.406,0,0,0,1.408,1.479,1.381,1.381,0,0,0,1.461-1.408A1.444,1.444,0,0,0,47.338,59.521Z" transform="translate(-29.673 -38.349)" fill="#214894"/>
            <path id="Trazado_42298" data-name="Trazado 42298" d="M21.687,54.485c-.249-1.087-.855-1.55-1.693-1.354-.962.214-1.354.891-1.14,2.084C19.816,54.967,20.743,54.735,21.687,54.485Z" transform="translate(-12.111 -34.204)" fill="#214894"/>
            <path id="Trazado_42299" data-name="Trazado 42299" d="M125.8,55.7c-.98-.178-1.586.3-1.853,1.479l2.887.428C127.029,56.519,126.654,55.86,125.8,55.7Z" transform="translate(-79.858 -35.864)" fill="#214894"/>
            <path id="Trazado_42300" data-name="Trazado 42300" d="M50.894,37.388a6.672,6.672,0,0,0-1.639-2.993,7.213,7.213,0,0,0-6.735-1.888,6.911,6.911,0,0,0-.873.232l-2.477-.606-.873-.16c-1.229-.249-2.387-.463-3.581-.677a2.33,2.33,0,0,0-2.014.642,2.546,2.546,0,0,0-2.138-.606c-.944.16-1.871.32-2.851.481.018-.784.053-1.568.071-2.37,0-.232,0-.445.018-.659v-.321l.018-1.888s-5.15-.374-6.218-.321a3.058,3.058,0,0,0-2.316.82,3.143,3.143,0,0,0-.748,2.316c-.018.641-.018,1.265-.036,1.888a6.366,6.366,0,0,0-2,.214,6.962,6.962,0,0,0-3.884,2.637l-.107.16A6.646,6.646,0,0,0,10.075,32.4a7.235,7.235,0,0,0-6.949.784,6.91,6.91,0,0,0-2.316,2.6,7.539,7.539,0,0,0-.8,3.1,8.912,8.912,0,0,0,.659,3.777,7.448,7.448,0,0,0,2.191,3.029,6.54,6.54,0,0,0,2.975,1.3,7.805,7.805,0,0,0,1.461.125,9.735,9.735,0,0,0,1.586-.143,8.948,8.948,0,0,0,4.9-2.423.248.248,0,0,0,.071.053A6.4,6.4,0,0,0,18,46.119a3.1,3.1,0,0,0,.41-.018,9.971,9.971,0,0,0,1.515-.249,3.555,3.555,0,0,0,1.906.481H24.7a2.638,2.638,0,0,0,1.639-.5c-.071.178-.16.356-.232.535L25.326,48.1l1.621.98a15.346,15.346,0,0,0,4.223,1.782,4.359,4.359,0,0,0,1.122.178,2.429,2.429,0,0,0,1.016-.214,2.905,2.905,0,0,0,1.425-1.675c.267-.624.552-1.247.82-1.888.571-1.319,1.159-2.637,1.746-3.974a6.5,6.5,0,0,0,1.942,2.495,8.448,8.448,0,0,0,5.22,1.782c.249,0,.5-.018.748-.036a7.411,7.411,0,0,0,3.421-.98,4.13,4.13,0,0,0,1.532-2.423,5.5,5.5,0,0,0,.178-2,3.023,3.023,0,0,0,.57-1.176A8.012,8.012,0,0,0,50.894,37.388Zm-2.1,3.118c-.107.428-.855.642-1.764.659a5.015,5.015,0,0,1-3.3-1,1.869,1.869,0,0,0-.3-.249c-.089-.053-.143-.053-.178.107a1.473,1.473,0,0,0,1.069,1.746,5.917,5.917,0,0,0,2.8.374c.232-.018.446-.054.659-.089.784-.16.3,2.3-.41,2.779a5.421,5.421,0,0,1-2.423.606,6.34,6.34,0,0,1-4.454-1.336,5.083,5.083,0,0,1-1.621-4.989,6.149,6.149,0,0,1,1.568-3.171,2.142,2.142,0,0,1,.214-.2,4.823,4.823,0,0,1,2.334-1.158C47.028,33.825,49.7,36.836,48.792,40.506Zm-11.457-2.69c-.213.5-.427,1-.659,1.5q-1.951,4.49-3.938,8.98c-.3.713-.32.713-1.087.5a13.761,13.761,0,0,1-3.671-1.55c.517-1.14,1-2.245,1.515-3.332a1.566,1.566,0,0,0,.018-1.354c-.285-.784-.57-1.55-.837-2.334-.374-1.069-.748-2.156-1.123-3.225l-.641-1.871c-.053-.16-.107-.3-.16-.463a2,2,0,0,1-.16-.517c.321-.053.731-.125,1.051-.178,1.1-.178,2.191-.356,3.278-.535.321-.053.428.125.481.392.125.517.25,1.051.374,1.568q.267,1.1.535,2.191v.036c.036.16.071.32.16.641.125-.392.232-.731.339-1.033.071-.214.125-.41.2-.606.107-.3.2-.606.3-.927.213-.659.445-1.336.677-2,.053-.143.249-.356.338-.339,1.443.249,2.869.535,4.419.837-.089.232-.178.481-.285.7-.036.089-.071.178-.107.285-.2.517-.392,1.016-.588,1.515A11.965,11.965,0,0,1,37.335,37.816Zm-12.08,5.755c-.018.463-.125.677-.624.659-.926-.018-1.853,0-2.8,0-.606-.018-1.158-.107-1-.82A15.373,15.373,0,0,1,18.253,44,4.514,4.514,0,0,1,13.567,40.2c-.018-.054-.018-.107-.036-.16a7.371,7.371,0,0,1-.143-1.39,5.275,5.275,0,0,1,.98-3.261,4.621,4.621,0,0,1,6-1.372c.036.018.107.036.232.089.018-1.586.018-3.118.053-4.65.018-1.016.036-1.033,1.033-1.069,1.016-.036,2.049-.053,3.065-.053.285,0,.588.071.927.107,0,.339,0,.641-.018.927-.071,2-.125,3.991-.2,6-.071,2.441-.16,4.882-.214,7.323C25.273,42.983,25.255,43.286,25.255,43.571ZM12.32,42.734a5.32,5.32,0,0,1-2,1.5,6.337,6.337,0,0,1-4.633.481c-3.029-.855-4.276-4.722-3.189-7.5a4.738,4.738,0,0,1,1.817-2.227c3.439-2.263,7.091-.5,7.662,3.243a.613.613,0,0,1-.071.338c-.481.909-3.243,1.889-4.722,1.3a3.078,3.078,0,0,0-.374-.125c-.089-.018-.16.018-.125.16.018.16.214,1.194,1.657,1.194a6.113,6.113,0,0,0,3.3-1.087c.41-.267.748.5.838,1.318A2.58,2.58,0,0,1,12.32,42.734Z" transform="translate(0 -16.911)" fill="#214894"/>
            <path id="Trazado_42301" data-name="Trazado 42301" d="M15.424,54.011a6.265,6.265,0,0,1-3.3,1.087A1.475,1.475,0,0,1,10.471,53.9c-.018-.143.036-.178.125-.16a1.548,1.548,0,0,1,.374.125c1.479.588,4.24-.392,4.722-1.3a.585.585,0,0,0,.071-.338c-.588-3.742-4.223-5.506-7.661-3.243a4.738,4.738,0,0,0-1.817,2.227c-1.087,2.779.16,6.628,3.189,7.5a6.337,6.337,0,0,0,4.633-.481,5.32,5.32,0,0,0,2-1.5,2.286,2.286,0,0,0,.16-1.408C16.173,54.509,15.834,53.743,15.424,54.011ZM10.56,51.926c-.214-1.176.16-1.853,1.14-2.084.838-.2,1.443.267,1.693,1.354C12.431,51.445,11.5,51.677,10.56,51.926Z" transform="translate(-3.799 -30.914)" fill="#fff"/>
            <path id="Trazado_42302" data-name="Trazado 42302" d="M45.941,32.126c-.98.036-1,.053-1.033,1.069-.036,1.532-.036,3.047-.053,4.65-.143-.054-.2-.054-.232-.089a4.616,4.616,0,0,0-6,1.372,5.275,5.275,0,0,0-.98,3.261,7.374,7.374,0,0,0,.143,1.39c.018.053.018.107.036.16a4.514,4.514,0,0,0,4.686,3.8,14.987,14.987,0,0,0,2.583-.588c-.16.712.392.8,1,.82.927.018,1.853-.018,2.8,0,.5.018.606-.2.624-.659,0-.285.018-.57.018-.873q.107-3.661.214-7.323c.071-2,.124-3.991.2-6,.018-.3,0-.588.018-.927-.339-.036-.641-.107-.927-.107C47.991,32.09,46.975,32.09,45.941,32.126ZM40.632,43.155a1.225,1.225,0,0,1,1.283-1.319,1.465,1.465,0,0,1,1.586,1.39,1.371,1.371,0,0,1-1.461,1.408A1.416,1.416,0,0,1,40.632,43.155Z" transform="translate(-24.25 -20.664)" fill="#fff"/>
            <path id="Trazado_42303" data-name="Trazado 42303" d="M82.59,46.3c-.089-.018-.285.2-.339.339-.232.659-.463,1.319-.677,2-.107.3-.2.606-.3.927-.071.2-.125.392-.2.606-.107.32-.214.659-.339,1.033-.071-.321-.124-.481-.16-.641v-.036l-.535-2.192c-.125-.516-.249-1.051-.374-1.568-.053-.267-.16-.445-.481-.392-1.087.178-2.174.356-3.278.535-.321.053-.731.125-1.051.178a1.264,1.264,0,0,0,.16.517c.054.16.107.3.16.463l.641,1.871c.374,1.069.731,2.156,1.123,3.225.267.784.552,1.568.837,2.334a1.567,1.567,0,0,1-.018,1.354c-.516,1.087-1,2.191-1.514,3.332a13.554,13.554,0,0,0,3.67,1.55c.784.2.784.2,1.087-.5q1.978-4.49,3.938-8.98c.213-.5.428-1,.659-1.5.16-.356.3-.731.463-1.1.2-.5.392-1,.588-1.515.036-.089.071-.178.107-.285.089-.232.178-.463.285-.7C85.458,46.831,84.033,46.545,82.59,46.3Z" transform="translate(-48.23 -29.828)" fill="#fff"/>
            <path id="Trazado_42304" data-name="Trazado 42304" d="M113.16,49.446a4.826,4.826,0,0,0-2.334,1.158c-.071.071-.142.125-.213.2a6.08,6.08,0,0,0-1.568,3.171,5.161,5.161,0,0,0,1.622,4.989A6.393,6.393,0,0,0,115.12,60.3a5.48,5.48,0,0,0,2.423-.606c.73-.481,1.211-2.94.41-2.779-.214.036-.445.071-.659.089a5.912,5.912,0,0,1-2.8-.374,1.473,1.473,0,0,1-1.069-1.746c.036-.143.107-.143.178-.107a3.809,3.809,0,0,1,.3.249,5.014,5.014,0,0,0,3.3,1c.908-.018,1.657-.25,1.764-.659C119.9,51.709,117.223,48.7,113.16,49.446Zm4.009,4.08-2.887-.428c.267-1.176.873-1.657,1.853-1.479C116.991,51.78,117.365,52.439,117.169,53.526Z" transform="translate(-70.195 -31.784)" fill="#fff"/>
            <path id="Trazado_42305" data-name="Trazado 42305" d="M31.87,1.506A1.506,1.506,0,1,1,30.364,0,1.506,1.506,0,0,1,31.87,1.506Zm-1.506,9.971a1.506,1.506,0,1,0-1.506-1.506A1.506,1.506,0,0,0,30.364,11.477Zm-1.953,3.055a.969.969,0,1,0-.969-.969A.968.968,0,0,0,28.411,14.533ZM27.22,8.092a2.354,2.354,0,1,0-2.354-2.354A2.354,2.354,0,0,0,27.22,8.092Z" transform="translate(-16.021)" fill="#204496" fill-rule="evenodd"/>
          </g>
        </g>
      </g>
    </g>
  </g>
</svg>
