<svg xmlns="http://www.w3.org/2000/svg" xmlns:xlink="http://www.w3.org/1999/xlink" width="68.681" height="41.209" viewBox="0 0 68.681 41.209">
  <defs>
    <linearGradient id="linear-gradient" y1="1" x2="1" y2="1" gradientUnits="objectBoundingBox">
      <stop offset="0" stop-color="#8b33bd"/>
      <stop offset="0.01" stop-color="#8b33bd"/>
      <stop offset="1" stop-color="#4325c3"/>
    </linearGradient>
  </defs>
  <g id="Grupo_20615" data-name="Grupo 20615" transform="translate(-703 -1681)">
    <rect id="Rectángulo_18557" data-name="Rectángulo 18557" width="68.681" height="41.209" rx="3" transform="translate(703 1681)" fill="url(#linear-gradient)"/>
    <g id="Grupo_20614" data-name="Grupo 20614" transform="translate(-32.689 -174.523)">
      <path id="Trazado_42929" data-name="Trazado 42929" d="M58.012,25.116c0,.006,0,5.986,0,5.986a.153.153,0,0,1-.133.162h-.812a.887.887,0,0,1-.871-.886v-5.24a1.7,1.7,0,0,0-1.808-1.731,1.715,1.715,0,0,0-1.8,1.76v5.942a.146.146,0,0,1-.135.155h-.813a.9.9,0,0,1-.871-.905V25.146a1.807,1.807,0,0,0-3.612.005v5.966a.139.139,0,0,1-.135.147H46.2a.872.872,0,0,1-.868-.871V25.139a3.4,3.4,0,0,1,3.618-3.525,3.639,3.639,0,0,1,2.716,1.074,3.644,3.644,0,0,1,2.714-1.082,3.4,3.4,0,0,1,3.627,3.51" transform="translate(720.665 1849.921)" fill="#fff"/>
      <path id="Trazado_42930" data-name="Trazado 42930" d="M86.948,31.219a.072.072,0,0,1-.062.111l-1.451,0a1.03,1.03,0,0,1-.966-.453L82.983,28.69a.554.554,0,0,0-1.049,0l-1.485,2.191a1.029,1.029,0,0,1-.966.453H78.032a.074.074,0,0,1-.061-.115l2.863-4.227a.748.748,0,0,0,0-.819l-2.863-4.227a.072.072,0,0,1,.061-.113h1.451a1.027,1.027,0,0,1,.966.451l1.485,2.191a.554.554,0,0,0,1.049,0l1.486-2.191a1.028,1.028,0,0,1,.966-.451h1.451a.073.073,0,0,1,.062.113l-2.864,4.227a.751.751,0,0,0,0,.819Z" transform="translate(710.448 1849.85)" fill="#fff"/>
      <path id="Trazado_42931" data-name="Trazado 42931" d="M73.156,21.762h-.572a.878.878,0,0,0-.76.437l-.212.369a4.373,4.373,0,0,0-2.769-.962c-2.664,0-4.437,1.883-4.437,4.864,0,3,1.8,4.863,4.416,4.863a4.327,4.327,0,0,0,2.626-.845.851.851,0,0,0,.874.775h.83c.08,0,.146-.035.146-.116l0-9.24a.146.146,0,0,0-.146-.146M68.8,29.523c-1.515,0-2.625-1.128-2.625-3.053s1.11-3.054,2.625-3.054,2.625,1.128,2.625,3.054-1.11,3.053-2.625,3.053" transform="translate(714.693 1849.921)" fill="#fff"/>
      <path id="Trazado_42932" data-name="Trazado 42932" d="M14.273,25.367H12.6V21.833H9.937v9.5H12.6V27.647h1.675v3.687h2.581v-9.5H14.273Z" transform="translate(731.751 1849.849)" fill="#fff"/>
      <path id="Trazado_42933" data-name="Trazado 42933" d="M32.082,21.6a4.784,4.784,0,0,0-4.354,2.746A2.756,2.756,0,0,0,25.2,21.759H20.79v9.5H24.9A2.86,2.86,0,0,0,27.734,28.6a4.841,4.841,0,1,0,4.348-7m-7.529,7.448H23.247V27.443h1.306a.814.814,0,0,1,0,1.606m0-3.568H23.252V23.875h1.306a.814.814,0,0,1,0,1.606m1.739.955a2.036,2.036,0,0,0,.974-.6,4.4,4.4,0,0,0,.005,1.326,1.828,1.828,0,0,0-.979-.727m5.786,2.419A2.419,2.419,0,1,1,34.5,26.435a2.419,2.419,0,0,1-2.419,2.419" transform="translate(728.353 1849.922)" fill="#fff"/>
      <path id="Trazado_42934" data-name="Trazado 42934" d="M36.366,25.872a1.9,1.9,0,1,0,1.9,1.9,1.9,1.9,0,0,0-1.9-1.9" transform="translate(724.07 1848.584)" fill="#fff"/>
    </g>
  </g>
</svg>
