<svg xmlns="http://www.w3.org/2000/svg" xmlns:xlink="http://www.w3.org/1999/xlink" width="68.681" height="41.209" viewBox="0 0 68.681 41.209">
  <defs>
    <clipPath id="clip-path">
      <rect id="Rect치ngulo_18610" data-name="Rect치ngulo 18610" width="36.952" height="23.126" fill="#fff"/>
    </clipPath>
  </defs>
  <g id="Grupo_20617" data-name="Grupo 20617" transform="translate(-778 -1681)">
    <rect id="Rect치ngulo_18557" data-name="Rect치ngulo 18557" width="68.681" height="41.209" rx="3" transform="translate(778 1681)" fill="#1a98fc"/>
    <g id="Grupo_20616" data-name="Grupo 20616" transform="translate(794 1690)">
      <g id="Grupo_20453" data-name="Grupo 20453" transform="translate(0 0)" clip-path="url(#clip-path)">
        <path id="Trazado_43170" data-name="Trazado 43170" d="M1.057,22.892a.391.391,0,0,1-.27-.078A.365.365,0,0,1,.7,22.537V13.074A.366.366,0,0,1,.787,12.8a.391.391,0,0,1,.27-.078H2.078a.367.367,0,0,1,.4.312l.1.369A3.138,3.138,0,0,1,3.6,12.748a3.285,3.285,0,0,1,1.227-.241,2.634,2.634,0,0,1,2.177,1.007,4.254,4.254,0,0,1,.8,2.724,4.964,4.964,0,0,1-.4,2.057A3.216,3.216,0,0,1,6.334,19.65a2.659,2.659,0,0,1-1.561.475,3.317,3.317,0,0,1-1.106-.184,2.66,2.66,0,0,1-.894-.511v3.107a.388.388,0,0,1-.078.276.388.388,0,0,1-.277.078Zm3.107-4.327a1.328,1.328,0,0,0,1.17-.539,3.027,3.027,0,0,0,.376-1.7,3.107,3.107,0,0,0-.369-1.717,1.326,1.326,0,0,0-1.178-.539,2.7,2.7,0,0,0-1.39.383v3.731a2.605,2.605,0,0,0,1.39.383" transform="translate(-0.527 -9.386)" fill="#fff"/>
        <path id="Trazado_43171" data-name="Trazado 43171" d="M35.1,20.4a.306.306,0,0,1-.355-.355V13.5a.366.366,0,0,1,.085-.276.391.391,0,0,1,.27-.078h1.021a.367.367,0,0,1,.4.312l.184.766a4.047,4.047,0,0,1,1.071-.887,2.285,2.285,0,0,1,1.071-.263h.2a.415.415,0,0,1,.283.078.364.364,0,0,1,.085.276v1.192a.39.39,0,0,1-.078.27.365.365,0,0,1-.277.085q-.1,0-.255-.014c-.1-.009-.237-.014-.4-.014a4.232,4.232,0,0,0-.795.092,3.9,3.9,0,0,0-.794.234v4.767a.392.392,0,0,1-.078.27.365.365,0,0,1-.277.085Z" transform="translate(-26.079 -9.813)" fill="#fff"/>
        <path id="Trazado_43172" data-name="Trazado 43172" d="M58.035,2.213a1.233,1.233,0,0,1-.865-.3,1.04,1.04,0,0,1-.326-.809A1.04,1.04,0,0,1,57.169.3,1.406,1.406,0,0,1,58.9.3a1.042,1.042,0,0,1,.326.809,1.042,1.042,0,0,1-.326.809,1.234,1.234,0,0,1-.865.3m-.681,8.37A.306.306,0,0,1,57,10.229V3.688a.365.365,0,0,1,.085-.276.392.392,0,0,1,.27-.078h1.362a.387.387,0,0,1,.276.078.387.387,0,0,1,.078.276v6.54a.391.391,0,0,1-.078.27.364.364,0,0,1-.276.085Z" transform="translate(-42.658 0)" fill="#fff"/>
        <path id="Trazado_43173" data-name="Trazado 43173" d="M73.162,19.969a.306.306,0,0,1-.355-.355v-6.54a.366.366,0,0,1,.085-.276.391.391,0,0,1,.27-.078h1.021a.367.367,0,0,1,.4.312l.114.383a6.119,6.119,0,0,1,1.355-.7,3.816,3.816,0,0,1,1.241-.206,1.909,1.909,0,0,1,1.8.908,5.809,5.809,0,0,1,1.362-.695,4.14,4.14,0,0,1,1.319-.213,2.065,2.065,0,0,1,1.539.553,2.106,2.106,0,0,1,.546,1.546v5.008a.392.392,0,0,1-.078.27.366.366,0,0,1-.277.085H82.142a.307.307,0,0,1-.355-.355V15.061q0-.965-.865-.964a3.6,3.6,0,0,0-1.547.369v5.15a.391.391,0,0,1-.078.27.365.365,0,0,1-.277.085H77.659a.306.306,0,0,1-.355-.355V15.061q0-.965-.865-.964a3.459,3.459,0,0,0-1.561.383v5.136a.392.392,0,0,1-.078.27.365.365,0,0,1-.277.085Z" transform="translate(-54.639 -9.386)" fill="#fff"/>
        <path id="Trazado_43174" data-name="Trazado 43174" d="M125.858,20.182a3.609,3.609,0,0,1-2.7-.965,3.792,3.792,0,0,1-.943-2.766,4.115,4.115,0,0,1,.964-2.894,3.46,3.46,0,0,1,2.681-1.05,3.073,3.073,0,0,1,2.064.638,2.13,2.13,0,0,1,.745,1.7,1.823,1.823,0,0,1-.8,1.61A4.2,4.2,0,0,1,125.5,17a5.588,5.588,0,0,1-1.4-.156,1.926,1.926,0,0,0,.575,1.362,2.261,2.261,0,0,0,1.483.412,5.889,5.889,0,0,0,.773-.05,9.612,9.612,0,0,0,1.043-.22.53.53,0,0,1,.085-.021.446.446,0,0,1,.071-.007q.241,0,.241.326V19.3a.588.588,0,0,1-.063.319.522.522,0,0,1-.249.163,6.089,6.089,0,0,1-2.2.4m-.468-4.455a1.927,1.927,0,0,0,1.05-.22.757.757,0,0,0,.326-.674q0-.894-1.064-.894-1.362,0-1.575,1.674a6.443,6.443,0,0,0,1.263.114" transform="translate(-91.715 -9.386)" fill="#fff"/>
        <path id="Trazado_43175" data-name="Trazado 43175" d="M33.4,65.263a26.5,26.5,0,0,1-14.961,4.573A27.075,27.075,0,0,1,.164,62.865c-.379-.342-.041-.809.414-.544a36.786,36.786,0,0,0,18.286,4.852,36.381,36.381,0,0,0,13.948-2.854c.684-.29,1.257.451.588.945" transform="translate(0 -46.711)" fill="#fff" fill-rule="evenodd"/>
        <path id="Trazado_43176" data-name="Trazado 43176" d="M125.377,61.153c-.518-.662-3.42-.314-4.725-.158-.4.047-.456-.3-.1-.548,2.316-1.626,6.11-1.157,6.551-.612s-.117,4.353-2.287,6.169c-.334.279-.652.13-.5-.239.489-1.219,1.582-3.95,1.064-4.613" transform="translate(-90.294 -44.522)" fill="#fff" fill-rule="evenodd"/>
      </g>
    </g>
  </g>
</svg>
