<svg xmlns="http://www.w3.org/2000/svg" xmlns:xlink="http://www.w3.org/1999/xlink" width="244.79" height="72.827" viewBox="0 0 244.79 72.827">
  <defs>
    <linearGradient id="linear-gradient" x1="0.5" y1="0.146" x2="0.5" y2="0.716" gradientUnits="objectBoundingBox">
      <stop offset="0" stop-color="#eb4e16"/>
      <stop offset="0.955" stop-color="#f57b0f"/>
      <stop offset="0.993" stop-color="#f67d0f"/>
    </linearGradient>
    <linearGradient id="linear-gradient-2" x1="0.5" y1="-0.159" x2="0.5" y2="0.615" xlink:href="#linear-gradient"/>
    <linearGradient id="linear-gradient-4" x1="0.5" y1="0.365" x2="0.5" y2="1.196" gradientUnits="objectBoundingBox">
      <stop offset="0" stop-color="#edeeed"/>
      <stop offset="1" stop-color="#96989c"/>
    </linearGradient>
    <linearGradient id="linear-gradient-5" y1="0.367" y2="1.183" xlink:href="#linear-gradient-4"/>
    <linearGradient id="linear-gradient-6" y1="0.369" y2="1.19" xlink:href="#linear-gradient-4"/>
  </defs>
  <g id="mvshub2" transform="translate(67.707 20.143)">
    <g id="Grupo_15112" data-name="Grupo 15112" transform="translate(-67.707 -20.143)">
      <g id="Grupo_15109" data-name="Grupo 15109" transform="translate(39.247 58.609)">
        <g id="Grupo_15108" data-name="Grupo 15108">
          <path id="Trazado_9669" data-name="Trazado 9669" d="M110.2,181.2V172.95h1.61l.244,1.194a3.5,3.5,0,0,1,2.663-1.194,2.165,2.165,0,0,1,2.129,1.131,3.938,3.938,0,0,1,2.647-1.131q2.844,0,2.844,3.134V181.2h-2.082v-5.192q0-1.375-1.241-1.375a2.555,2.555,0,0,0-1.783.833V181.2h-2.081V176.03q0-1.4-1.147-1.4a2.389,2.389,0,0,0-1.72.833V181.2Z" transform="translate(-110.202 -169.966)" fill="#f67d0f"/>
          <path id="Trazado_9670" data-name="Trazado 9670" d="M146.883,177.032q0-4.147,4.085-4.147t4.085,4.147q0,4.14-4.085,4.14Q146.9,181.172,146.883,177.032Zm4.085,2.553q2,0,2-2.585,0-2.521-2-2.521t-2,2.521Q148.965,179.585,150.968,179.585Z" transform="translate(-133.82 -169.924)" fill="#f67d0f"/>
          <path id="Trazado_9671" data-name="Trazado 9671" d="M169.669,172.95h2.2l2,5.765,2.082-5.765h2.2L174.8,181.2h-1.979Z" transform="translate(-148.491 -169.966)" fill="#f67d0f"/>
          <path id="Trazado_9672" data-name="Trazado 9672" d="M196.52,164.57v1.649h-2.081V164.57Zm0,2.984V175.8h-2.081v-8.248Z" transform="translate(-164.439 -164.57)" fill="#f67d0f"/>
          <path id="Trazado_9673" data-name="Trazado 9673" d="M206.761,172.95q3.754,0,3.754,3.833a7.4,7.4,0,0,1-.07,1.021H204.97q0,1.744,2.561,1.744a13.451,13.451,0,0,0,2.5-.236v1.65a12.8,12.8,0,0,1-2.655.236q-4.486,0-4.486-4.218Q202.888,172.951,206.761,172.95Zm-1.791,3.409h3.519V176.3a1.52,1.52,0,0,0-1.728-1.712Q205.111,174.584,204.97,176.359Z" transform="translate(-169.879 -169.966)" fill="#f67d0f"/>
          <path id="Trazado_9674" data-name="Trazado 9674" d="M226.177,180.664v-1.728a8.5,8.5,0,0,0,3.173.55q1.343,0,1.343-.864,0-.825-.9-.824H228.3a2.2,2.2,0,0,1-2.514-2.474q0-2.592,3.668-2.592a8.966,8.966,0,0,1,2.93.471v1.728a7.958,7.958,0,0,0-2.985-.55q-1.689,0-1.689.864,0,.825.982.825h1.336q2.749,0,2.749,2.474,0,2.592-3.5,2.593A9.511,9.511,0,0,1,226.177,180.664Z" transform="translate(-184.621 -169.825)" fill="#f67d0f"/>
          <path id="Trazado_9675" data-name="Trazado 9675" d="M265.672,172.95h2.2l2,5.765,2.082-5.765h2.2L270.8,181.2h-1.979Z" transform="translate(-210.303 -169.966)" fill="#f67d0f"/>
          <path id="Trazado_9676" data-name="Trazado 9676" d="M292.524,164.57v1.649h-2.081V164.57Zm0,2.984V175.8h-2.081v-8.248Z" transform="translate(-226.253 -164.57)" fill="#f67d0f"/>
          <path id="Trazado_9677" data-name="Trazado 9677" d="M306.59,175.308a14.587,14.587,0,0,1-3.7.5q-4,0-4-4.289,0-3.959,3.912-3.959a4.13,4.13,0,0,1,1.7.393V164.57h2.082Zm-2.082-5.6a2.886,2.886,0,0,0-1.618-.424q-1.94,0-1.94,2.176,0,2.584,2.019,2.584a5.1,5.1,0,0,0,1.54-.228Z" transform="translate(-231.693 -164.57)" fill="#f67d0f"/>
          <path id="Trazado_9678" data-name="Trazado 9678" d="M326.984,172.95q3.754,0,3.754,3.833a7.4,7.4,0,0,1-.07,1.021h-5.475q0,1.744,2.561,1.744a13.451,13.451,0,0,0,2.5-.236v1.65a12.8,12.8,0,0,1-2.655.236q-4.485,0-4.485-4.218Q323.111,172.951,326.984,172.95Zm-1.791,3.409h3.519V176.3a1.52,1.52,0,0,0-1.728-1.712Q325.334,174.584,325.193,176.359Z" transform="translate(-247.286 -169.966)" fill="#f67d0f"/>
          <path id="Trazado_9679" data-name="Trazado 9679" d="M346.007,177.032q0-4.147,4.084-4.147t4.085,4.147q0,4.14-4.085,4.14Q346.023,181.172,346.007,177.032Zm4.084,2.553q2,0,2-2.585,0-2.521-2-2.521t-2,2.521Q348.089,179.585,350.091,179.585Z" transform="translate(-262.028 -169.924)" fill="#f67d0f"/>
          <path id="Trazado_9680" data-name="Trazado 9680" d="M390.691,180.664v-1.728a8.5,8.5,0,0,0,3.173.55q1.343,0,1.343-.864,0-.825-.9-.824h-1.493a2.2,2.2,0,0,1-2.513-2.474q0-2.592,3.668-2.592a8.968,8.968,0,0,1,2.93.471v1.728a7.96,7.96,0,0,0-2.985-.55q-1.689,0-1.688.864,0,.825.981.825h1.336q2.749,0,2.749,2.474,0,2.592-3.5,2.593A9.51,9.51,0,0,1,390.691,180.664Z" transform="translate(-290.546 -169.825)" fill="#f67d0f"/>
          <path id="Trazado_9681" data-name="Trazado 9681" d="M411.869,169.2h1.54l.314,1.335H415.8v1.65h-1.846v3.794q0,1.154,1,1.155h.848v1.65h-1.854q-2.074,0-2.074-2.223Z" transform="translate(-304.434 -167.552)" fill="#f67d0f"/>
          <path id="Trazado_9682" data-name="Trazado 9682" d="M425.061,181.2V172.95h1.61L426.93,174a3.27,3.27,0,0,1,2.294-1.053v1.681a2.81,2.81,0,0,0-2.082.966v5.6Z" transform="translate(-312.928 -169.966)" fill="#f67d0f"/>
          <path id="Trazado_9683" data-name="Trazado 9683" d="M441.023,172.95q3.755,0,3.755,3.833a7.4,7.4,0,0,1-.071,1.021h-5.475q0,1.744,2.561,1.744a13.449,13.449,0,0,0,2.5-.236v1.65a12.8,12.8,0,0,1-2.655.236q-4.485,0-4.485-4.218Q437.151,172.951,441.023,172.95Zm-1.791,3.409h3.519V176.3a1.52,1.52,0,0,0-1.728-1.712Q439.374,174.584,439.232,176.359Z" transform="translate(-320.712 -169.966)" fill="#f67d0f"/>
          <path id="Trazado_9684" data-name="Trazado 9684" d="M460.047,178.63q0-2.459,3.582-2.459a9.166,9.166,0,0,1,1.681.157v-.62q0-1.108-1.595-1.108a13.04,13.04,0,0,0-3,.393v-1.65a13.04,13.04,0,0,1,3-.393q3.676,0,3.676,2.718v5.53h-1.209l-.739-.739a4.1,4.1,0,0,1-2.372.739Q460.046,181.2,460.047,178.63Zm3.582-1.045q-1.5,0-1.5,1.021,0,1.1,1.257,1.1a3.211,3.211,0,0,0,1.925-.644v-1.32A8.606,8.606,0,0,0,463.629,177.585Z" transform="translate(-335.454 -169.966)" fill="#f67d0f"/>
          <path id="Trazado_9685" data-name="Trazado 9685" d="M484.375,181.2V172.95h1.61l.243,1.194a3.505,3.505,0,0,1,2.663-1.194,2.165,2.165,0,0,1,2.128,1.131,3.939,3.939,0,0,1,2.647-1.131q2.844,0,2.843,3.134V181.2h-2.081v-5.192q0-1.375-1.241-1.375a2.553,2.553,0,0,0-1.783.833V181.2h-2.082V176.03q0-1.4-1.147-1.4a2.389,2.389,0,0,0-1.72.833V181.2Z" transform="translate(-351.118 -169.966)" fill="#f67d0f"/>
          <path id="Trazado_9686" data-name="Trazado 9686" d="M524.24,164.57v1.649h-2.081V164.57Zm0,2.984V175.8h-2.081v-8.248Z" transform="translate(-375.445 -164.57)" fill="#f67d0f"/>
          <path id="Trazado_9687" data-name="Trazado 9687" d="M531.71,181.2V172.95h1.61l.259,1.21a3.692,3.692,0,0,1,2.7-1.21q2.929,0,2.93,3.048v5.2H537.13V176a1.2,1.2,0,0,0-1.359-1.367,3.068,3.068,0,0,0-1.979.809V181.2Z" transform="translate(-381.596 -169.966)" fill="#f67d0f"/>
          <path id="Trazado_9688" data-name="Trazado 9688" d="M563.132,180.57q0,3.613-4.344,3.613a8.522,8.522,0,0,1-2.7-.393v-1.65a8.717,8.717,0,0,0,2.717.393q2.247,0,2.247-1.885a5.059,5.059,0,0,1-2,.393q-3.676,0-3.676-4.014,0-4.076,4.281-4.077a21.766,21.766,0,0,1,3.471.338Zm-2.081-5.75a4.365,4.365,0,0,0-1.453-.189q-2.16,0-2.16,2.38,0,2.3,1.862,2.3a3.91,3.91,0,0,0,1.752-.424Z" transform="translate(-396.836 -169.966)" fill="#f67d0f"/>
        </g>
        <rect id="Rect치ngulo_3708" data-name="Rect치ngulo 3708" width="0.642" height="10.101" transform="translate(51.472 1.322)" fill="#fff"/>
        <rect id="Rect치ngulo_3709" data-name="Rect치ngulo 3709" width="0.642" height="10.101" transform="translate(95.568 1.322)" fill="#fff"/>
      </g>
      <g id="Grupo_15111" data-name="Grupo 15111">
        <g id="Grupo_15110" data-name="Grupo 15110" transform="translate(133.079)">
          <path id="Trazado_9689" data-name="Trazado 9689" d="M373.675,51V0h9.451V18.332a14.72,14.72,0,0,1,11.306-4.779q13.3,0,13.3,13.838V51h-9.451V27.391q0-6.206-6.17-6.206a13.929,13.929,0,0,0-8.988,3.674V51Z" transform="translate(-373.675)" fill="url(#linear-gradient)"/>
          <path id="Trazado_9690" data-name="Trazado 9690" d="M515.746,37.713v37.57h-7.383L507.223,70.5a22.63,22.63,0,0,1-13.7,4.779q-11.485,0-11.484-13.588V37.713h9.451V61.445q0,6.206,5.421,6.206,4.6,0,9.38-3.674V37.713Z" transform="translate(-443.449 -24.282)" fill="url(#linear-gradient-2)"/>
          <path id="Trazado_9691" data-name="Trazado 9691" d="M589.409,0h9.452V16.406a16.568,16.568,0,0,1,9.451-2.853q15.978,0,15.977,17.975,0,19.473-18.3,19.473a97.753,97.753,0,0,1-16.585-1.534Zm9.452,42.334a24.8,24.8,0,0,0,7.525,1.035q8.56,0,8.559-12.09,0-9.879-7.382-9.879a19.477,19.477,0,0,0-8.7,1.926Z" transform="translate(-512.578)" fill="url(#linear-gradient)"/>
        </g>
        <path id="Trazado_9692" data-name="Trazado 9692" d="M180.661,63.891l-9.095-26.178H161.58l14.3,37.448h8.988L200.1,37.713h-9.986Z" transform="translate(-104.035 -24.282)" fill="url(#linear-gradient-4)"/>
        <path id="Trazado_9693" data-name="Trazado 9693" d="M291.291,51.869h-6.063a5.83,5.83,0,0,1-2.856-.6,3.3,3.3,0,0,1-1.6-3.144,3.258,3.258,0,0,1,2.3-3.12,14.232,14.232,0,0,1,5.369-.8,36.3,36.3,0,0,1,13.135,2.333q.209.081.418.164V38.851a40.738,40.738,0,0,0-13.3-2.14,29.893,29.893,0,0,0-8.348,1.016,13.739,13.739,0,0,0-4.326,2.059,9.282,9.282,0,0,0-2.986,3.644,10.52,10.52,0,0,0-.746,2.35,13.99,13.99,0,0,0-.249,2.7,17.442,17.442,0,0,0,.292,3.3,10.128,10.128,0,0,0,1.744,4.182,8.436,8.436,0,0,0,3.737,2.811,12.637,12.637,0,0,0,2.831.742,19.049,19.049,0,0,0,2.81.2h6.776a5.525,5.525,0,0,1,2.252.4,2.87,2.87,0,0,1,1.388,1.248,4.276,4.276,0,0,1,.463,2.093,3.376,3.376,0,0,1-.827,2.357,4.655,4.655,0,0,1-2.479,1.293,12.558,12.558,0,0,1-2.793.273q-2.272,0-4.4-.193a39.523,39.523,0,0,1-5.061-.782,32.415,32.415,0,0,1-4.952-1.521v7.846a43.167,43.167,0,0,0,14.052,2.14q15.906,0,15.906-11.77a16.782,16.782,0,0,0-.2-2.645,11.277,11.277,0,0,0-.931-3.093,8.546,8.546,0,0,0-3.823-3.956A16.068,16.068,0,0,0,291.291,51.869Z" transform="translate(-175.151 -23.637)" fill="url(#linear-gradient-5)"/>
        <path id="Trazado_9694" data-name="Trazado 9694" d="M28.619,42.554l.125-.14a17.961,17.961,0,0,1,5.38-4.193,14.757,14.757,0,0,1,6.426-1.51,15.86,15.86,0,0,1,11.731,5.368c3.138,3.606,4.857,7.064,4.857,12.012V74.638H47.8V54.09c0-4.445-3.363-8.386-7.248-8.386-4.035,0-7.323,3.858-7.323,8.386V74.638H23.911V54.09c0-4.529-3.288-8.386-7.323-8.386C12.7,45.7,9.34,49.646,9.34,54.09V74.638H0V54.09c0-4.948,1.719-8.406,4.857-12.012a15.86,15.86,0,0,1,11.731-5.368,14.757,14.757,0,0,1,6.426,1.51,17.966,17.966,0,0,1,5.38,4.193l.125.14.049.053Z" transform="translate(0 -23.637)" fill="url(#linear-gradient-6)"/>
      </g>
    </g>
  </g>
</svg>
