<svg xmlns="http://www.w3.org/2000/svg" width="169.547" height="32.852" viewBox="0 0 169.547 32.852"><defs><style>.a{fill:#0096d6;}.b{fill:#002552;fill-rule:evenodd;}</style></defs><g transform="translate(12.28)"><g transform="translate(81.524)"><path class="a" d="M199.574,32.04a.81.81,0,0,1-.555-.161.755.755,0,0,1-.175-.57V11.825a.755.755,0,0,1,.175-.57.8.8,0,0,1,.555-.161h2.1a.756.756,0,0,1,.818.642l.2.759a6.475,6.475,0,0,1,2.118-1.344,6.752,6.752,0,0,1,2.527-.5,5.428,5.428,0,0,1,4.485,2.074,8.757,8.757,0,0,1,1.651,5.609,10.206,10.206,0,0,1-.818,4.236,6.624,6.624,0,0,1-2.22,2.789,5.469,5.469,0,0,1-3.213.978,6.846,6.846,0,0,1-2.279-.38,5.482,5.482,0,0,1-1.84-1.05v6.4a.606.606,0,0,1-.735.735Zm6.4-8.91a2.734,2.734,0,0,0,2.414-1.11,6.231,6.231,0,0,0,.775-3.505,6.4,6.4,0,0,0-.76-3.536,2.732,2.732,0,0,0-2.425-1.11,5.565,5.565,0,0,0-2.863.788v7.683A5.371,5.371,0,0,0,205.971,23.13Z" transform="translate(-198.839 -4.228)"/><path class="a" d="M216.24,26.009a.63.63,0,0,1-.735-.5.609.609,0,0,1,0-.231V11.811a.755.755,0,0,1,.175-.57.8.8,0,0,1,.555-.161h2.1a.756.756,0,0,1,.818.642l.38,1.575a8.368,8.368,0,0,1,2.2-1.826,4.718,4.718,0,0,1,2.2-.541h.417a.856.856,0,0,1,.585.161.748.748,0,0,1,.174.569v2.454a.805.805,0,0,1-.161.555.751.751,0,0,1-.57.175c-.136,0-.312-.009-.525-.029s-.486-.029-.818-.028a8.739,8.739,0,0,0-1.636.19,8.091,8.091,0,0,0-1.637.482v9.815a.805.805,0,0,1-.161.555.755.755,0,0,1-.57.175Z" transform="translate(-198.01 -4.214)"/><path class="a" d="M228.777,9.09a2.538,2.538,0,0,1-1.785-.613,2.143,2.143,0,0,1-.672-1.665,2.139,2.139,0,0,1,.672-1.666,2.9,2.9,0,0,1,3.564,0,2.144,2.144,0,0,1,.672,1.665,2.144,2.144,0,0,1-.672,1.665A2.54,2.54,0,0,1,228.777,9.09Zm-1.4,17.236a.63.63,0,0,1-.735-.5.609.609,0,0,1,0-.231V12.129a.751.751,0,0,1,.175-.57.8.8,0,0,1,.555-.161h2.8a.8.8,0,0,1,.569.161.8.8,0,0,1,.162.57V25.6a.805.805,0,0,1-.162.555.748.748,0,0,1-.569.175Z" transform="translate(-197.471 -4.533)"/><path class="a" d="M234.869,26.022a.63.63,0,0,1-.735-.5.61.61,0,0,1,0-.231V11.825a.755.755,0,0,1,.175-.57.8.8,0,0,1,.555-.161h2.1a.755.755,0,0,1,.818.642l.234.788a12.592,12.592,0,0,1,2.79-1.446,7.871,7.871,0,0,1,2.556-.42,3.928,3.928,0,0,1,3.71,1.87,11.988,11.988,0,0,1,2.8-1.432,8.531,8.531,0,0,1,2.717-.439,4.252,4.252,0,0,1,3.169,1.14,4.34,4.34,0,0,1,1.125,3.184V25.3a.8.8,0,0,1-.161.555.751.751,0,0,1-.57.175h-2.8a.63.63,0,0,1-.735-.5.61.61,0,0,1,0-.231V15.914q0-1.986-1.785-1.986a7.411,7.411,0,0,0-3.184.759v10.6a.8.8,0,0,1-.161.555.751.751,0,0,1-.57.175h-2.8a.63.63,0,0,1-.735-.5.609.609,0,0,1,0-.231V15.914q0-1.986-1.785-1.986a7.116,7.116,0,0,0-3.213.788V25.292a.8.8,0,0,1-.161.555.751.751,0,0,1-.57.175Z" transform="translate(-197.083 -4.229)"/><path class="a" d="M265.83,26.46a7.43,7.43,0,0,1-5.564-1.986,7.811,7.811,0,0,1-1.942-5.7,8.475,8.475,0,0,1,1.986-5.961,7.128,7.128,0,0,1,5.522-2.161,6.323,6.323,0,0,1,4.251,1.315,4.386,4.386,0,0,1,1.534,3.505,3.755,3.755,0,0,1-1.65,3.316,8.646,8.646,0,0,1-4.864,1.125,11.513,11.513,0,0,1-2.892-.321,3.965,3.965,0,0,0,1.183,2.8,4.659,4.659,0,0,0,3.054.847,12.063,12.063,0,0,0,1.593-.1,19.947,19.947,0,0,0,2.147-.452,1.258,1.258,0,0,1,.175-.044.968.968,0,0,1,.146-.015q.5,0,.5.672v1.345a1.209,1.209,0,0,1-.131.657,1.078,1.078,0,0,1-.511.336A12.537,12.537,0,0,1,265.83,26.46Zm-.964-9.173a3.966,3.966,0,0,0,2.161-.452,1.557,1.557,0,0,0,.672-1.388q0-1.841-2.191-1.84-2.8,0-3.243,3.447A13.255,13.255,0,0,0,264.866,17.287Z" transform="translate(-195.879 -4.229)"/></g><g transform="translate(0 22.435)"><path class="b" d="M162.988,30.553c-5.064,3.737-12.405,5.724-18.727,5.724a33.892,33.892,0,0,1-22.877-8.727c-.473-.428-.05-1.013.519-.681a46.038,46.038,0,0,0,22.885,6.073,45.532,45.532,0,0,0,17.459-3.569c.856-.363,1.575.564.735,1.183Z" transform="translate(-121.18 -25.861)"/><path class="b" d="M163.313,28.19c-.648-.829-4.281-.393-5.913-.2-.494.059-.571-.373-.125-.685,2.9-2.036,7.649-1.448,8.2-.766s-.146,5.449-2.862,7.722c-.42.35-.816.163-.63-.3.611-1.526,1.98-4.943,1.331-5.774Z" transform="translate(-119.398 -25.904)"/></g></g><g transform="translate(0 6.58)"><path class="b" d="M157.514,13.658V11.68a.488.488,0,0,1,.476-.5h8.893a.494.494,0,0,1,.511.476v1.72a2.8,2.8,0,0,1-.668,1.246l-4.594,6.557a9.833,9.833,0,0,1,5.058,1.087.9.9,0,0,1,.47.772v2.111c0,.291-.315.63-.653.451a10.208,10.208,0,0,0-9.368.018c-.309.164-.63-.168-.63-.46V23.151a2.384,2.384,0,0,1,.33-1.365l5.321-7.634h-4.634a.494.494,0,0,1-.512-.474v-.02Z" transform="translate(-107.117 -10.782)"/><path class="b" d="M174.484,13.761c-1.989,0-2.114,2.708-2.114,4.4s-.025,5.3,2.09,5.3c2.09,0,2.19-2.913,2.19-4.689a12.786,12.786,0,0,0-.4-3.674,1.687,1.687,0,0,0-1.763-1.341Zm-.024-2.826c4,0,6.168,3.438,6.168,7.807,0,4.224-2.391,7.575-6.168,7.575-3.928,0-6.069-3.439-6.069-7.721,0-4.311,2.166-7.663,6.069-7.663Z" transform="translate(-106.55 -10.794)"/><path class="b" d="M153.855,26a.575.575,0,0,1-.637.063,7.018,7.018,0,0,1-1.545-1.8,5.349,5.349,0,0,1-4.448,1.957,3.827,3.827,0,0,1-4.049-3.594,3.749,3.749,0,0,1,.012-.6,4.581,4.581,0,0,1,2.876-4.409,18.662,18.662,0,0,1,5.071-.934,4.771,4.771,0,0,0-.328-2.31,1.891,1.891,0,0,0-1.514-.7,2.053,2.053,0,0,0-2.159,1.587c-.055.3-.276.551-.509.525l-2.583-.28a.476.476,0,0,1-.408-.534l.005-.029c.6-3.171,3.464-4.13,6.032-4.13a6.121,6.121,0,0,1,4.063,1.343c1.312,1.226,1.186,2.862,1.186,4.643v4.2a3.679,3.679,0,0,0,1.017,2.5.509.509,0,0,1-.008.717c-.551.462-2.075,1.785-2.075,1.785Zm-2.72-6.577a5.289,5.289,0,0,1-.5,2.862,2.191,2.191,0,0,1-1.868,1.226c-1.034,0-1.64-.788-1.64-1.957,0-2.3,2.062-2.715,4.012-2.715Z" transform="translate(-107.806 -10.801)"/><path class="b" d="M120.169,26a.575.575,0,0,1-.637.063,7,7,0,0,1-1.546-1.8,5.354,5.354,0,0,1-4.447,1.957,3.827,3.827,0,0,1-4.049-3.594,3.751,3.751,0,0,1,.012-.6,4.581,4.581,0,0,1,2.876-4.409,18.662,18.662,0,0,1,5.071-.934,4.771,4.771,0,0,0-.328-2.31,1.891,1.891,0,0,0-1.514-.7,2.054,2.054,0,0,0-2.159,1.589c-.055.3-.276.551-.509.525l-2.582-.279a.476.476,0,0,1-.408-.534l.005-.029c.6-3.171,3.464-4.13,6.032-4.13a6.121,6.121,0,0,1,4.063,1.343c1.312,1.226,1.186,2.862,1.186,4.643v4.2a3.679,3.679,0,0,0,1.017,2.5.509.509,0,0,1-.008.717c-.551.462-2.075,1.785-2.075,1.785Zm-2.719-6.577a5.3,5.3,0,0,1-.5,2.862,2.191,2.191,0,0,1-1.868,1.226c-1.034,0-1.64-.788-1.64-1.957,0-2.3,2.062-2.715,4.012-2.715Z" transform="translate(-109.482 -10.801)"/><path class="b" d="M127.352,18.189c0-1.6-.076-3.816,1.863-3.816,1.914,0,1.662,2.272,1.662,3.816v7.339a.508.508,0,0,0,.485.5h2.694a.508.508,0,0,0,.525-.491V18.189a8.392,8.392,0,0,1,.252-2.652,1.79,1.79,0,0,1,1.612-1.136,1.407,1.407,0,0,1,1.586,1.2,17.823,17.823,0,0,1,.076,2.593v7.339a.506.506,0,0,0,.484.5h2.694a.509.509,0,0,0,.525-.493V16.792c0-1.486.175-3.176-.68-4.341a3.989,3.989,0,0,0-6.849,1.05c-.756-1.748-1.813-2.564-3.5-2.564a3.558,3.558,0,0,0-3.549,2.564h-.05v-1.77a.5.5,0,0,0-.5-.5h-2.519a.5.5,0,0,0-.5.5V25.522a.5.5,0,0,0,.5.5h2.693a.5.5,0,0,0,.5-.5V18.189Z" transform="translate(-108.777 -10.794)"/><path class="b" d="M185.671,25.522a.5.5,0,0,1-.5.5h-2.694a.5.5,0,0,1-.5-.5V11.731a.5.5,0,0,1,.5-.5h2.488a.5.5,0,0,1,.5.394v2.111h.051c.756-1.89,1.812-2.8,3.674-2.8a3.537,3.537,0,0,1,3.149,1.631c.705,1.106.705,2.971.705,4.311v8.713a.512.512,0,0,1-.516.436h-2.7a.509.509,0,0,1-.48-.436V17.225c0-2.8-1.073-2.882-1.691-2.882A1.846,1.846,0,0,0,186.1,15.43a6.264,6.264,0,0,0-.438,2.642v7.453Z" transform="translate(-105.874 -10.794)"/></g></svg>