<svg xmlns="http://www.w3.org/2000/svg" width="454.031" height="48" viewBox="0 0 454.031 48"><defs><style>.a{fill:#1f6fa8;font-size:40px;font-family:HelveticaNeue-Light, Helvetica Neue;font-weight:300;}.b{fill:#0096d6;}.c{fill:#002552;fill-rule:evenodd;}.d{fill:#00acec;}</style></defs><g transform="translate(-384.875 -854)"><text class="a" transform="translate(600.649 854)"><tspan x="1.199" y="39">/</tspan></text><g transform="translate(630.033 857.493)"><g transform="translate(15.129)"><g transform="translate(100.433)"><path class="b" d="M199.744,37a1,1,0,0,1-.684-.2.93.93,0,0,1-.216-.7v-24a.93.93,0,0,1,.216-.7.991.991,0,0,1,.684-.2h2.587a.931.931,0,0,1,1.007.791l.252.935a7.978,7.978,0,0,1,2.61-1.655,8.317,8.317,0,0,1,3.113-.612,6.687,6.687,0,0,1,5.525,2.555,10.789,10.789,0,0,1,2.034,6.91,12.573,12.573,0,0,1-1.007,5.218,8.161,8.161,0,0,1-2.735,3.436,6.738,6.738,0,0,1-3.959,1.205,8.434,8.434,0,0,1-2.808-.468A6.754,6.754,0,0,1,204.1,28.22V36.1a.746.746,0,0,1-.905.905Zm7.881-10.977a3.368,3.368,0,0,0,2.975-1.367,7.677,7.677,0,0,0,.954-4.318,7.88,7.88,0,0,0-.936-4.356,3.365,3.365,0,0,0-2.987-1.367,6.855,6.855,0,0,0-3.527.971v9.465A6.617,6.617,0,0,0,207.626,26.024Z" transform="translate(-198.839 -2.738)"/><path class="b" d="M216.413,29.507a.776.776,0,0,1-.905-.621.75.75,0,0,1,0-.285V12.016a.93.93,0,0,1,.216-.7.991.991,0,0,1,.684-.2h2.587a.931.931,0,0,1,1.007.791l.468,1.94a10.31,10.31,0,0,1,2.716-2.249,5.812,5.812,0,0,1,2.716-.666h.513a1.055,1.055,0,0,1,.72.2.921.921,0,0,1,.215.7v3.024a.992.992,0,0,1-.2.684.925.925,0,0,1-.7.216c-.168,0-.384-.012-.647-.036s-.6-.036-1.008-.035a10.766,10.766,0,0,0-2.015.234,9.967,9.967,0,0,0-2.016.594V28.6a.992.992,0,0,1-.2.684.93.93,0,0,1-.7.216Z" transform="translate(-193.954 -2.657)"/><path class="b" d="M229.347,10.147a3.127,3.127,0,0,1-2.2-.755,2.64,2.64,0,0,1-.828-2.051,2.636,2.636,0,0,1,.828-2.052,3.567,3.567,0,0,1,4.391,0,2.642,2.642,0,0,1,.828,2.051,2.642,2.642,0,0,1-.828,2.051A3.13,3.13,0,0,1,229.347,10.147Zm-1.725,21.234a.776.776,0,0,1-.905-.621.75.75,0,0,1,0-.285V13.891a.925.925,0,0,1,.216-.7.992.992,0,0,1,.684-.2h3.456a.98.98,0,0,1,.7.2.986.986,0,0,1,.2.7v16.59a.992.992,0,0,1-.2.684.922.922,0,0,1-.7.216Z" transform="translate(-190.78 -4.533)"/><path class="b" d="M235.042,29.589a.776.776,0,0,1-.905-.621.752.752,0,0,1,0-.285V12.1a.93.93,0,0,1,.216-.7.992.992,0,0,1,.684-.2h2.587a.93.93,0,0,1,1.007.791l.288.971a15.513,15.513,0,0,1,3.438-1.781,9.7,9.7,0,0,1,3.149-.517,4.839,4.839,0,0,1,4.57,2.3,14.769,14.769,0,0,1,3.456-1.764,10.51,10.51,0,0,1,3.347-.541,5.239,5.239,0,0,1,3.9,1.4,5.347,5.347,0,0,1,1.386,3.922V28.694a.991.991,0,0,1-.2.684.925.925,0,0,1-.7.216h-3.454a.776.776,0,0,1-.905-.621.751.751,0,0,1,0-.285V17.136q0-2.446-2.2-2.447a9.13,9.13,0,0,0-3.922.935V28.687a.992.992,0,0,1-.2.684.925.925,0,0,1-.7.216h-3.456a.776.776,0,0,1-.905-.621.75.75,0,0,1,0-.285V17.136q0-2.446-2.2-2.447a8.766,8.766,0,0,0-3.959.971V28.689a.991.991,0,0,1-.2.684.925.925,0,0,1-.7.216Z" transform="translate(-188.491 -2.741)"/><path class="b" d="M267.575,30.129a9.154,9.154,0,0,1-6.854-2.447,9.623,9.623,0,0,1-2.393-7.019,10.44,10.44,0,0,1,2.447-7.343,8.781,8.781,0,0,1,6.8-2.663,7.789,7.789,0,0,1,5.236,1.62A5.4,5.4,0,0,1,274.7,16.6a4.626,4.626,0,0,1-2.033,4.085,10.651,10.651,0,0,1-5.992,1.386,14.184,14.184,0,0,1-3.563-.4,4.884,4.884,0,0,0,1.457,3.456,5.74,5.74,0,0,0,3.762,1.044,14.861,14.861,0,0,0,1.962-.129,24.575,24.575,0,0,0,2.645-.557,1.548,1.548,0,0,1,.216-.054,1.192,1.192,0,0,1,.18-.018q.611,0,.612.828V27.9a1.489,1.489,0,0,1-.162.81,1.328,1.328,0,0,1-.63.414A15.445,15.445,0,0,1,267.575,30.129Zm-1.187-11.3a4.886,4.886,0,0,0,2.663-.557,1.918,1.918,0,0,0,.828-1.71q0-2.268-2.7-2.267-3.455,0-3.995,4.247A16.329,16.329,0,0,0,266.387,18.828Z" transform="translate(-181.399 -2.741)"/></g><g transform="translate(0 27.639)"><path class="c" d="M172.686,31.43c-6.239,4.6-15.283,7.052-23.071,7.052a41.753,41.753,0,0,1-28.183-10.751c-.583-.528-.062-1.248.639-.839a56.717,56.717,0,0,0,28.193,7.482,56.093,56.093,0,0,0,21.508-4.4c1.054-.447,1.94.694.905,1.458Z" transform="translate(-121.18 -25.65)"/><path class="c" d="M164.782,28.721c-.8-1.022-5.274-.484-7.285-.243-.609.072-.7-.459-.154-.844,3.571-2.508,9.423-1.783,10.1-.944s-.18,6.713-3.525,9.513c-.517.431-1,.2-.776-.367.753-1.88,2.439-6.09,1.64-7.113Z" transform="translate(-110.681 -25.904)"/></g></g><g transform="translate(0 8.106)"><path class="c" d="M157.632,14.232V11.8a.6.6,0,0,1,.586-.617h10.955a.609.609,0,0,1,.63.586v2.118a3.448,3.448,0,0,1-.823,1.535L163.321,23.5a12.114,12.114,0,0,1,6.231,1.339,1.112,1.112,0,0,1,.579.951v2.6c0,.358-.388.776-.8.556a12.576,12.576,0,0,0-11.541.022c-.38.2-.776-.207-.776-.566v-2.47a2.937,2.937,0,0,1,.406-1.681l6.556-9.4h-5.708a.608.608,0,0,1-.631-.585v-.025Z" transform="translate(-95.545 -10.69)"/><path class="c" d="M175.9,14.417c-2.451,0-2.6,3.337-2.6,5.419s-.031,6.532,2.575,6.532c2.575,0,2.7-3.589,2.7-5.777a15.752,15.752,0,0,0-.5-4.526,2.079,2.079,0,0,0-2.171-1.652Zm-.03-3.481c4.931,0,7.6,4.235,7.6,9.618,0,5.2-2.946,9.332-7.6,9.332-4.839,0-7.476-4.237-7.476-9.512,0-5.311,2.668-9.441,7.476-9.441Z" transform="translate(-92.206 -10.762)"/><path class="c" d="M156.333,29.522a.709.709,0,0,1-.785.078,8.646,8.646,0,0,1-1.9-2.214,6.59,6.59,0,0,1-5.48,2.411,4.715,4.715,0,0,1-4.988-4.428,4.618,4.618,0,0,1,.014-.745,5.643,5.643,0,0,1,3.544-5.432,22.991,22.991,0,0,1,6.248-1.151,5.878,5.878,0,0,0-.4-2.845,2.33,2.33,0,0,0-1.865-.864,2.529,2.529,0,0,0-2.66,1.955c-.067.369-.34.679-.627.647l-3.183-.345a.586.586,0,0,1-.5-.658l.006-.036c.74-3.907,4.268-5.088,7.431-5.088a7.541,7.541,0,0,1,5,1.654c1.617,1.511,1.461,3.525,1.461,5.72v5.173a4.532,4.532,0,0,0,1.253,3.079.627.627,0,0,1-.01.883c-.679.569-2.557,2.2-2.557,2.2Zm-3.351-8.1a6.516,6.516,0,0,1-.622,3.525,2.7,2.7,0,0,1-2.3,1.511c-1.274,0-2.02-.971-2.02-2.411,0-2.831,2.54-3.344,4.943-3.344Z" transform="translate(-99.603 -10.801)"/><path class="c" d="M122.647,29.522a.709.709,0,0,1-.785.078,8.628,8.628,0,0,1-1.9-2.214,6.6,6.6,0,0,1-5.478,2.411,4.715,4.715,0,0,1-4.988-4.428,4.623,4.623,0,0,1,.014-.745,5.643,5.643,0,0,1,3.544-5.432A22.991,22.991,0,0,1,119.3,18.04a5.878,5.878,0,0,0-.4-2.845,2.33,2.33,0,0,0-1.865-.864,2.531,2.531,0,0,0-2.66,1.958c-.067.369-.34.679-.627.647l-3.181-.344a.586.586,0,0,1-.5-.658l.006-.036c.74-3.907,4.268-5.088,7.431-5.088a7.541,7.541,0,0,1,5,1.654c1.617,1.511,1.461,3.525,1.461,5.72v5.173a4.532,4.532,0,0,0,1.253,3.079.627.627,0,0,1-.01.883c-.679.569-2.557,2.2-2.557,2.2Zm-3.35-8.1a6.527,6.527,0,0,1-.622,3.525,2.7,2.7,0,0,1-2.3,1.511c-1.274,0-2.02-.971-2.02-2.411,0-2.831,2.54-3.344,4.943-3.344Z" transform="translate(-109.482 -10.8)"/><path class="c" d="M128.21,19.872c0-1.975-.093-4.7,2.3-4.7,2.358,0,2.047,2.8,2.047,4.7v9.041a.625.625,0,0,0,.6.613h3.319a.626.626,0,0,0,.647-.605V19.872a10.337,10.337,0,0,1,.31-3.267,2.206,2.206,0,0,1,1.986-1.4,1.733,1.733,0,0,1,1.954,1.473,21.956,21.956,0,0,1,.093,3.194v9.041a.623.623,0,0,0,.6.613h3.319a.627.627,0,0,0,.647-.608V18.15c0-1.831.216-3.912-.838-5.348a4.915,4.915,0,0,0-8.437,1.293c-.931-2.153-2.234-3.158-4.312-3.158a4.383,4.383,0,0,0-4.373,3.158H128v-2.18a.621.621,0,0,0-.621-.621h-3.1a.621.621,0,0,0-.621.621v16.99a.621.621,0,0,0,.621.621h3.317a.621.621,0,0,0,.621-.621V19.872Z" transform="translate(-105.326 -10.762)"/><path class="c" d="M186.53,28.906a.621.621,0,0,1-.621.621h-3.319a.621.621,0,0,1-.621-.621V11.916a.621.621,0,0,1,.621-.621h3.065a.613.613,0,0,1,.621.485v2.6h.063c.931-2.328,2.232-3.445,4.526-3.445a4.358,4.358,0,0,1,3.88,2.01c.869,1.363.869,3.66.869,5.311V28.991a.63.63,0,0,1-.636.537h-3.331a.627.627,0,0,1-.591-.537V18.685c0-3.448-1.322-3.55-2.083-3.55a2.274,2.274,0,0,0-1.913,1.339,7.716,7.716,0,0,0-.539,3.255v9.182Z" transform="translate(-88.224 -10.763)"/></g></g><g transform="translate(384.875 861.859)"><path class="d" d="M112.651,63.949l-4.2,25.226h6.025l1.608-9.53h9.176l.847-5.015h-9.183l.842-5.287h10.474l.911-5.395Z" transform="translate(-108.45 -63.948)"/><path class="d" d="M132.881,72.49c1.122-1.643,2.808-2.9,4.382-2.9a4.282,4.282,0,0,1,1.858.417l-1.333,5.325a4.974,4.974,0,0,0-1.827-.28,4.885,4.885,0,0,0-3.112,1.646l-1.993,11.84h-5.821L128.153,70h4.52Z" transform="translate(-106.575 -63.446)"/><path class="d" d="M152.6,86.392a15.322,15.322,0,0,1-7.98,2.312c-4.975,0-7.71-2.828-7.71-7.559,0-6.833,4.513-11.56,11.037-11.56,4.654,0,6.864,2.692,6.864,5.868,0,4.106-2.591,5.657-11.737,6.174,0,1.349,1.055,2.452,3.084,2.452a14.171,14.171,0,0,0,5.576-1.343Zm-3.251-10.835c0-.935-.736-1.628-2.108-1.628-2.2,0-3.712,1.765-4.1,3.937,3.19-.24,6.206-.24,6.206-2.308" transform="translate(-105.551 -63.311)"/><path class="d" d="M169.494,86.392a15.32,15.32,0,0,1-7.985,2.312c-4.973,0-7.708-2.828-7.708-7.559,0-6.833,4.52-11.56,11.037-11.56,4.656,0,6.864,2.692,6.864,5.868,0,4.106-2.588,5.657-11.735,6.174,0,1.349,1.053,2.452,3.082,2.452a14.17,14.17,0,0,0,5.573-1.343Zm-3.257-10.835c0-.935-.736-1.628-2.1-1.628-2.212,0-3.716,1.765-4.1,3.937,3.188-.24,6.2-.24,6.2-2.308" transform="translate(-103.83 -63.311)"/><path class="d" d="M182.821,86.929a7.7,7.7,0,0,1-5.887,2.7c-4.135,0-6.128-2.7-6.128-7.216,0-8.061,4.729-12.192,9.629-12.192a5.623,5.623,0,0,1,4.488,2.029l1.372-8.3h5.776l-4.2,25.222h-5.082Zm1.33-10.368a3.634,3.634,0,0,0-2.911-1.435c-2.62,0-4.165,2.241-4.165,6.2,0,2,.7,3.434,2.627,3.434a5.016,5.016,0,0,0,3.363-1.577Z" transform="translate(-102.111 -63.948)"/><path class="d" d="M200.15,69.581c4.87,0,8.094,2.8,8.094,7.767a12.128,12.128,0,0,1-.139,1.869c-1.013,7.071-5.714,9.486-10.968,9.486-5.22,0-8.058-2.757-8.058-7.627a16.607,16.607,0,0,1,.109-1.825c.872-6.942,5.843-9.671,10.962-9.671M195.072,80.8c0,2.246,1.158,3.177,2.907,3.177,1.924,0,3.534-1.242,4.1-4.76a10.514,10.514,0,0,0,.141-1.729c0-2.279-1.128-3.176-2.778-3.176-2.065,0-3.673,1.346-4.2,4.658a12.321,12.321,0,0,0-.175,1.83" transform="translate(-100.242 -63.311)"/><path class="d" d="M214.947,70l.139,2.168a8.332,8.332,0,0,1,5.817-2.59c2.142,0,3.4.88,4,2.491a9.064,9.064,0,0,1,6.125-2.491c3.329,0,4.8,2.068,4.134,6.065L232.99,88.535h-5.814l1.958-11.665c.25-1.5.039-2.315-1.327-2.315a4.641,4.641,0,0,0-2.729,1.23l-2.138,12.75h-5.823l1.93-11.456c.242-1.571.242-2.523-1.115-2.523a4.588,4.588,0,0,0-2.907,1.3l-2.141,12.68h-5.814L210.182,70Z" transform="translate(-98.469 -63.447)"/><path class="d" d="M237.958,63.948h9.669c4.975,0,7.745,2.6,7.745,6.97,0,6.03-3.646,10.271-10.933,10.271h-3.331l-1.324,7.983h-6.03Zm5.151,5.257-1.159,7.008h2.981c2.87,0,4.312-1.715,4.312-4.21,0-1.683-.951-2.8-3.016-2.8Z" transform="translate(-95.714 -63.948)"/><path class="d" d="M264.142,69.581c4.873,0,8.1,2.8,8.1,7.767a11.716,11.716,0,0,1-.138,1.869c-1.017,7.071-5.714,9.486-10.966,9.486-5.222,0-8.061-2.757-8.061-7.627a15.358,15.358,0,0,1,.108-1.825c.875-6.942,5.848-9.671,10.96-9.671M259.069,80.8c0,2.246,1.155,3.177,2.9,3.177,1.933,0,3.544-1.242,4.1-4.76a10.517,10.517,0,0,0,.141-1.729c0-2.279-1.122-3.176-2.775-3.176-2.059,0-3.676,1.346-4.2,4.658a12.892,12.892,0,0,0-.172,1.83" transform="translate(-93.971 -63.311)"/><path class="d" d="M269.121,95.537,273.391,70h4.732l.287,2.138a8.827,8.827,0,0,1,6.157-2.554c3.433,0,5.851,2.307,5.851,7.247,0,7.074-3.327,12.123-9.455,12.123A5.951,5.951,0,0,1,276.34,87l-1.406,8.541Zm7.952-12.889a4.228,4.228,0,0,0,3.016,1.471c2.445,0,4.061-2,4.061-6.372,0-2.175-.739-3.332-2.385-3.332a6.086,6.086,0,0,0-3.606,1.752Z" transform="translate(-92.157 -63.598)"/><path class="d" d="M292.292,84.934a2.073,2.073,0,1,1-2.067-2.017,2.027,2.027,0,0,1,2.067,2.017m-3.63,0a1.564,1.564,0,0,0,1.575,1.612,1.613,1.613,0,0,0-.012-3.222,1.568,1.568,0,0,0-1.563,1.611m1.243,1.059h-.467V83.974a4.1,4.1,0,0,1,.775-.061,1.264,1.264,0,0,1,.7.147.564.564,0,0,1,.2.443.517.517,0,0,1-.418.467V85a.6.6,0,0,1,.368.492,1.554,1.554,0,0,0,.148.505h-.5a1.786,1.786,0,0,1-.16-.492c-.037-.223-.159-.321-.417-.321h-.222Zm.012-1.144h.221c.258,0,.468-.087.468-.3,0-.184-.136-.307-.431-.307a1.116,1.116,0,0,0-.258.024Z" transform="translate(-90.006 -62.019)"/></g></g></svg>