<?xml version="1.0" encoding="utf-8"?>
<!-- Generator: Adobe Illustrator 25.2.0, SVG Export Plug-In . SVG Version: 6.00 Build 0)  -->
<svg version="1.1" id="Capa_1" xmlns="http://www.w3.org/2000/svg" xmlns:xlink="http://www.w3.org/1999/xlink" x="0px" y="0px"
	 viewBox="0 0 148 29" style="enable-background:new 0 0 148 29;" xml:space="preserve">
<style type="text/css">
	.st0{enable-background:new    ;}
	.st1{fill:#32BA46;}
	.st2{fill:#FFFFFF;}
</style>
<g transform="translate(-1309 -3238)">
	<g class="st0">
		<path class="st1" d="M1345.8,3257l-2.5-9.3h1.3l1.4,6.1c0.2,0.6,0.3,1.3,0.4,1.9c0.2-1,0.4-1.6,0.4-1.7l1.8-6.3h1.5l1.3,4.7
			c0.3,1.2,0.6,2.3,0.7,3.3c0.1-0.6,0.3-1.3,0.5-2l1.5-6h1.2l-2.6,9.3h-1.2l-2-7.1c-0.2-0.6-0.3-1-0.3-1.1c-0.1,0.4-0.2,0.8-0.3,1.1
			l-2,7.1H1345.8z"/>
		<path class="st1" d="M1356.3,3257v-9.3h1.1v3.3c0.5-0.6,1.2-0.9,2-0.9c0.5,0,0.9,0.1,1.3,0.3c0.4,0.2,0.6,0.5,0.8,0.8
			c0.2,0.3,0.2,0.9,0.2,1.5v4.3h-1.1v-4.3c0-0.6-0.1-1-0.4-1.2c-0.2-0.3-0.6-0.4-1.1-0.4c-0.3,0-0.7,0.1-1,0.3
			c-0.3,0.2-0.5,0.4-0.6,0.7c-0.1,0.3-0.2,0.7-0.2,1.2v3.7H1356.3z"/>
		<path class="st1" d="M1367.9,3256.2c-0.4,0.4-0.8,0.6-1.2,0.8c-0.4,0.1-0.8,0.2-1.3,0.2c-0.7,0-1.3-0.2-1.7-0.5
			c-0.4-0.4-0.6-0.8-0.6-1.4c0-0.3,0.1-0.6,0.2-0.9c0.1-0.3,0.3-0.5,0.6-0.7c0.2-0.2,0.5-0.3,0.8-0.4c0.2-0.1,0.6-0.1,1-0.2
			c0.9-0.1,1.6-0.2,2-0.4c0-0.2,0-0.3,0-0.3c0-0.5-0.1-0.8-0.3-1c-0.3-0.3-0.7-0.4-1.3-0.4c-0.5,0-0.9,0.1-1.2,0.3
			c-0.3,0.2-0.4,0.5-0.6,1l-1.1-0.2c0.1-0.5,0.3-0.9,0.5-1.2s0.6-0.5,1-0.7c0.4-0.2,1-0.2,1.5-0.2c0.6,0,1,0.1,1.4,0.2
			s0.6,0.3,0.8,0.5s0.3,0.5,0.4,0.8c0,0.2,0.1,0.5,0.1,1.1v1.5c0,1.1,0,1.7,0.1,2c0,0.3,0.1,0.6,0.3,0.8h-1.2
			C1368,3256.8,1368,3256.5,1367.9,3256.2z M1367.8,3253.6c-0.4,0.2-1,0.3-1.9,0.4c-0.5,0.1-0.8,0.1-1,0.2c-0.2,0.1-0.3,0.2-0.5,0.4
			s-0.2,0.3-0.2,0.5c0,0.3,0.1,0.6,0.3,0.8c0.2,0.2,0.6,0.3,1,0.3c0.4,0,0.8-0.1,1.2-0.3s0.6-0.5,0.8-0.8c0.1-0.3,0.2-0.6,0.2-1.1
			V3253.6z"/>
		<path class="st1" d="M1373.3,3256l0.2,1c-0.3,0.1-0.6,0.1-0.9,0.1c-0.4,0-0.7-0.1-1-0.2c-0.2-0.1-0.4-0.3-0.5-0.5
			s-0.1-0.7-0.1-1.3v-3.9h-0.8v-0.9h0.8v-1.7l1.1-0.7v2.4h1.1v0.9h-1.1v3.9c0,0.3,0,0.5,0.1,0.6c0,0.1,0.1,0.2,0.2,0.2
			c0.1,0.1,0.2,0.1,0.4,0.1C1372.9,3256,1373,3256,1373.3,3256z"/>
		<path class="st1" d="M1373.9,3255l1.1-0.2c0.1,0.5,0.2,0.8,0.5,1c0.3,0.2,0.7,0.4,1.2,0.4c0.5,0,0.9-0.1,1.2-0.3s0.4-0.5,0.4-0.8
			c0-0.3-0.1-0.5-0.3-0.6c-0.2-0.1-0.5-0.2-1.2-0.4c-0.8-0.2-1.4-0.4-1.7-0.5c-0.3-0.2-0.6-0.4-0.7-0.6c-0.2-0.3-0.3-0.6-0.3-0.9
			c0-0.3,0.1-0.6,0.2-0.8c0.1-0.3,0.3-0.5,0.6-0.6c0.2-0.1,0.4-0.2,0.7-0.3c0.3-0.1,0.6-0.1,1-0.1c0.5,0,1,0.1,1.4,0.2
			c0.4,0.2,0.7,0.4,0.9,0.6c0.2,0.3,0.3,0.6,0.4,1l-1.1,0.2c-0.1-0.3-0.2-0.6-0.4-0.8c-0.2-0.2-0.6-0.3-1-0.3
			c-0.5,0-0.9,0.1-1.1,0.3c-0.2,0.2-0.3,0.4-0.3,0.6c0,0.1,0,0.3,0.1,0.4c0.1,0.1,0.2,0.2,0.4,0.3c0.1,0,0.5,0.1,1,0.3
			c0.8,0.2,1.4,0.4,1.7,0.5c0.3,0.1,0.6,0.3,0.8,0.6s0.3,0.6,0.3,1c0,0.4-0.1,0.7-0.3,1.1c-0.2,0.3-0.5,0.6-1,0.8
			c-0.4,0.2-0.9,0.3-1.4,0.3c-0.9,0-1.5-0.2-2-0.5C1374.3,3256.2,1374,3255.7,1373.9,3255z"/>
		<path class="st1" d="M1380,3257l3.6-9.3h1.3l3.8,9.3h-1.4l-1.1-2.8h-3.9l-1,2.8H1380z M1382.7,3253.2h3.2l-1-2.6
			c-0.3-0.8-0.5-1.4-0.7-1.9c-0.1,0.6-0.3,1.2-0.5,1.8L1382.7,3253.2z"/>
		<path class="st1" d="M1389.5,3259.6v-9.3h1v0.9c0.2-0.3,0.5-0.6,0.8-0.8c0.3-0.2,0.7-0.3,1.1-0.3c0.6,0,1.1,0.1,1.5,0.4
			c0.4,0.3,0.8,0.7,1,1.3c0.2,0.5,0.3,1.1,0.3,1.8c0,0.7-0.1,1.3-0.4,1.9c-0.2,0.6-0.6,1-1.1,1.3c-0.5,0.3-1,0.4-1.5,0.4
			c-0.4,0-0.7-0.1-1-0.2c-0.3-0.2-0.6-0.4-0.7-0.6v3.3H1389.5z M1390.6,3253.7c0,0.9,0.2,1.5,0.5,1.9c0.4,0.4,0.8,0.6,1.3,0.6
			c0.5,0,0.9-0.2,1.3-0.6c0.4-0.4,0.5-1.1,0.5-2c0-0.9-0.2-1.5-0.5-1.9s-0.8-0.6-1.3-0.6c-0.5,0-0.9,0.2-1.3,0.7
			C1390.8,3252.1,1390.6,3252.8,1390.6,3253.7z"/>
		<path class="st1" d="M1396.8,3259.6v-9.3h1v0.9c0.2-0.3,0.5-0.6,0.8-0.8c0.3-0.2,0.7-0.3,1.1-0.3c0.6,0,1.1,0.1,1.5,0.4
			c0.4,0.3,0.8,0.7,1,1.3c0.2,0.5,0.3,1.1,0.3,1.8c0,0.7-0.1,1.3-0.4,1.9c-0.2,0.6-0.6,1-1.1,1.3s-1,0.4-1.5,0.4
			c-0.4,0-0.7-0.1-1-0.2s-0.6-0.4-0.7-0.6v3.3H1396.8z M1397.8,3253.7c0,0.9,0.2,1.5,0.5,1.9c0.4,0.4,0.8,0.6,1.3,0.6
			c0.5,0,0.9-0.2,1.3-0.6c0.4-0.4,0.5-1.1,0.5-2c0-0.9-0.2-1.5-0.5-1.9c-0.4-0.4-0.8-0.6-1.3-0.6c-0.5,0-0.9,0.2-1.3,0.7
			C1398,3252.1,1397.8,3252.8,1397.8,3253.7z"/>
		<path class="st1" d="M1408,3257v-9.3h1.2v9.3H1408z"/>
		<path class="st1" d="M1411.2,3257v-9.3h1.1v9.3H1411.2z"/>
		<path class="st1" d="M1414.1,3249v-1.3h1.1v1.3H1414.1z M1414.1,3257v-6.7h1.1v6.7H1414.1z"/>
		<path class="st1" d="M1417,3257v-6.7h1v0.9c0.2-0.3,0.5-0.6,0.8-0.8c0.4-0.2,0.8-0.3,1.2-0.3c0.5,0,0.9,0.1,1.2,0.3
			c0.3,0.2,0.5,0.5,0.7,0.9c0.5-0.8,1.2-1.2,2.1-1.2c0.7,0,1.2,0.2,1.5,0.6c0.4,0.4,0.5,0.9,0.5,1.7v4.6h-1.1v-4.2
			c0-0.5,0-0.8-0.1-1s-0.2-0.4-0.4-0.5c-0.2-0.1-0.4-0.2-0.7-0.2c-0.5,0-0.9,0.2-1.2,0.5c-0.3,0.3-0.5,0.8-0.5,1.5v3.9h-1.1v-4.4
			c0-0.5-0.1-0.9-0.3-1.1c-0.2-0.3-0.5-0.4-0.9-0.4c-0.3,0-0.6,0.1-0.9,0.3c-0.3,0.2-0.5,0.4-0.6,0.7c-0.1,0.3-0.2,0.8-0.2,1.4v3.5
			H1417z"/>
		<path class="st1" d="M1427.8,3249v-1.3h1.1v1.3H1427.8z M1427.8,3257v-6.7h1.1v6.7H1427.8z"/>
		<path class="st1" d="M1433.2,3256l0.2,1c-0.3,0.1-0.6,0.1-0.9,0.1c-0.4,0-0.7-0.1-1-0.2c-0.2-0.1-0.4-0.3-0.5-0.5
			c-0.1-0.2-0.1-0.7-0.1-1.3v-3.9h-0.8v-0.9h0.8v-1.7l1.1-0.7v2.4h1.1v0.9h-1.1v3.9c0,0.3,0,0.5,0.1,0.6s0.1,0.2,0.2,0.2
			c0.1,0.1,0.2,0.1,0.4,0.1C1432.8,3256,1433,3256,1433.2,3256z"/>
		<path class="st1" d="M1438.7,3256.2c-0.4,0.4-0.8,0.6-1.2,0.8c-0.4,0.1-0.8,0.2-1.3,0.2c-0.7,0-1.3-0.2-1.7-0.5
			c-0.4-0.4-0.6-0.8-0.6-1.4c0-0.3,0.1-0.6,0.2-0.9c0.2-0.3,0.3-0.5,0.6-0.7c0.2-0.2,0.5-0.3,0.8-0.4c0.2-0.1,0.6-0.1,1-0.2
			c0.9-0.1,1.6-0.2,2-0.4c0-0.2,0-0.3,0-0.3c0-0.5-0.1-0.8-0.3-1c-0.3-0.3-0.7-0.4-1.3-0.4c-0.5,0-0.9,0.1-1.2,0.3
			c-0.3,0.2-0.4,0.5-0.6,1l-1.1-0.2c0.1-0.5,0.3-0.9,0.5-1.2c0.2-0.3,0.6-0.5,1-0.7c0.4-0.2,1-0.2,1.5-0.2c0.6,0,1,0.1,1.4,0.2
			c0.4,0.1,0.6,0.3,0.8,0.5c0.2,0.2,0.3,0.5,0.4,0.8c0,0.2,0.1,0.5,0.1,1.1v1.5c0,1.1,0,1.7,0.1,2c0,0.3,0.1,0.6,0.3,0.8h-1.2
			C1438.8,3256.8,1438.8,3256.5,1438.7,3256.2z M1438.6,3253.6c-0.4,0.2-1,0.3-1.9,0.4c-0.5,0.1-0.8,0.1-1,0.2
			c-0.2,0.1-0.3,0.2-0.5,0.4c-0.1,0.2-0.2,0.3-0.2,0.5c0,0.3,0.1,0.6,0.3,0.8c0.2,0.2,0.6,0.3,1,0.3c0.4,0,0.8-0.1,1.2-0.3
			s0.6-0.5,0.8-0.8c0.1-0.3,0.2-0.6,0.2-1.1V3253.6z"/>
		<path class="st1" d="M1445.9,3257v-0.9c-0.4,0.7-1.1,1-1.9,1c-0.5,0-1-0.1-1.5-0.4c-0.5-0.3-0.8-0.7-1-1.2
			c-0.2-0.5-0.4-1.1-0.4-1.8c0-0.7,0.1-1.3,0.3-1.8c0.2-0.5,0.6-1,1-1.3c0.4-0.3,1-0.4,1.5-0.4c0.4,0,0.8,0.1,1.1,0.3
			c0.3,0.2,0.6,0.4,0.8,0.7v-3.3h1.1v9.3H1445.9z M1442.3,3253.6c0,0.9,0.2,1.5,0.5,1.9c0.4,0.4,0.8,0.6,1.3,0.6
			c0.5,0,0.9-0.2,1.3-0.6c0.3-0.4,0.5-1,0.5-1.9c0-0.9-0.2-1.6-0.5-2s-0.8-0.6-1.3-0.6c-0.5,0-0.9,0.2-1.3,0.6
			C1442.5,3252.1,1442.3,3252.7,1442.3,3253.6z"/>
		<path class="st1" d="M1448.4,3253.6c0-1.2,0.3-2.2,1-2.8c0.6-0.5,1.3-0.7,2.1-0.7c0.9,0,1.7,0.3,2.3,0.9c0.6,0.6,0.9,1.4,0.9,2.5
			c0,0.9-0.1,1.5-0.4,2c-0.3,0.5-0.6,0.9-1.1,1.2c-0.5,0.3-1,0.4-1.6,0.4c-0.9,0-1.7-0.3-2.3-0.9
			C1448.7,3255.6,1448.4,3254.8,1448.4,3253.6z M1449.5,3253.6c0,0.9,0.2,1.5,0.6,1.9c0.4,0.4,0.9,0.6,1.4,0.6c0.6,0,1-0.2,1.4-0.6
			c0.4-0.4,0.6-1.1,0.6-2c0-0.8-0.2-1.5-0.6-1.9c-0.4-0.4-0.8-0.6-1.4-0.6c-0.6,0-1,0.2-1.4,0.6
			C1449.7,3252.1,1449.5,3252.8,1449.5,3253.6z"/>
	</g>
	<g transform="translate(1309 3238)">
		<path class="st1" d="M8,0h13c4.4,0,8,3.6,8,8v13c0,4.4-3.6,8-8,8H8c-4.4,0-8-3.6-8-8V8C0,3.6,3.6,0,8,0z"/>
		<g transform="translate(5.122 5.122)">
			<g transform="translate(0 0)">
				<path class="st2" d="M9.4,18.8c-1.6,0-3.3-0.4-4.7-1.3L1,18.8l0.8-3.9C0.6,13.3,0,11.4,0,9.4C0,4.2,4.2,0,9.4,0
					c5.2,0,9.4,4.2,9.4,9.4C18.8,14.6,14.6,18.8,9.4,18.8z M4.9,16l0.3,0.2c1.3,0.8,2.7,1.2,4.2,1.2c4.4,0,8-3.6,8-8
					c0-4.4-3.6-8-8-8c-4.4,0-8,3.6-8,8c0,1.8,0.6,3.5,1.7,4.9l0.2,0.3l-0.4,2.1L4.9,16z"/>
			</g>
			<path class="st2" d="M4.7,5.8c0,0,0.6-1,1-1s1-0.1,1.2,0.2s0.9,2,0.9,2c0.1,0.2,0,0.4-0.1,0.6C7.4,7.8,7.2,8.1,7,8.3
				C6.9,8.5,6.9,8.7,7,8.9c0.4,0.6,0.8,1.1,1.3,1.6c0.6,0.5,1.4,1,2.1,1.3c0.1,0,0.2,0,0.3-0.1c0.1-0.1,0.8-1,0.8-1
				c0.1-0.2,0.4-0.2,0.6-0.1c0.4,0.2,2,1,2,1c0.1,0.1,0.2,0.2,0.2,0.4c0,0.4-0.1,0.9-0.4,1.2c-0.5,0.6-1.2,0.9-2,1
				c-1.8-0.2-3.5-1-4.8-2.2C6,10.6,4.8,9.3,4.5,8.1S4.3,6.3,4.7,5.8z"/>
		</g>
	</g>
</g>
</svg>
